<svg width="1192" height="199" viewBox="0 0 1192 199" fill="none" xmlns="http://www.w3.org/2000/svg">
<g filter="url(#filter0_f_14767_8541)">
<path d="M1182.18 105.336C1182.18 85.4487 1178.31 70.4893 1170.57 60.4578C1163.24 50.7396 1152.36 45.7291 1137.92 45.4255L1136.51 45.4109C1126.48 45.4109 1118.21 47.6107 1111.7 52.0105L1111.09 52.4294C1104.88 56.8302 1100.06 63.378 1096.65 72.073C1093.13 80.8726 1090.84 92.1366 1089.79 105.864H1087.68V49.1062H1051.51V188.493H1094.28V139.127C1094.28 125.658 1095.35 114.832 1097.5 106.648L1097.71 105.864C1099.92 97.8509 1102.97 91.9852 1106.83 88.2664L1107.21 87.9128C1111.26 84.2171 1115.92 82.3689 1121.2 82.3689L1121.79 82.3757C1127.82 82.5196 1132.2 84.8936 1134.93 89.4968C1137.92 94.2486 1139.42 101.376 1139.42 110.88V188.493H1182.18V105.336ZM1088.68 104.864H1088.87C1089.96 91.4918 1092.23 80.4278 1095.72 71.7019C1099.3 62.5842 1104.43 55.717 1111.14 51.1814C1117.86 46.6427 1126.34 44.4109 1136.51 44.4109C1151.89 44.4109 1163.56 49.5183 1171.36 59.8464C1179.3 70.1277 1183.18 85.3455 1183.18 105.336V189.493H1138.42V110.88C1138.42 101.449 1136.93 94.5465 1134.08 90.03L1134.07 90.0066C1131.46 85.6084 1127.25 83.3689 1121.2 83.3689C1116.18 83.3689 1111.76 85.1165 1107.89 88.6511C1104.03 92.1673 1100.94 97.9463 1098.67 106.131C1096.42 114.279 1095.28 125.265 1095.28 139.127V189.493H1050.51V48.1062H1088.68V104.864Z" fill="#6E97F2"/>
</g>
<g filter="url(#filter1_f_14767_8541)">
<path d="M904.507 121.704C904.507 111.59 905.749 101.91 908.237 92.6687L908.239 92.6599L908.242 92.6511C910.913 83.3929 914.924 75.186 920.282 68.0417L920.284 68.0388C925.84 60.6912 932.92 54.9588 941.506 50.8445C950.294 46.5418 960.745 44.4109 972.824 44.4109C984.896 44.4109 995.257 46.539 1003.87 50.8406C1012.64 54.9589 1019.65 60.7915 1024.86 68.3376C1030.06 75.8626 1033.36 84.5403 1034.79 94.3513L1034.94 95.2722C1036.38 104.819 1036.15 115.096 1034.26 126.096L1034.12 126.914L948.023 128.262C948.824 137.993 951.053 145.258 954.625 150.153C959.146 156.348 966.113 159.51 975.729 159.51V160.51L974.812 160.501C965.721 160.31 958.874 157.258 954.27 151.344L953.817 150.742C949.966 145.464 947.675 137.643 946.945 127.279L1033.28 125.927C1035.21 114.664 1035.39 104.192 1033.81 94.5125C1032.44 85.1356 1029.34 76.8321 1024.51 69.6023L1024.04 68.906C1018.93 61.5143 1012.07 55.7937 1003.45 51.7458C995.264 47.654 985.428 45.5447 973.941 45.4167L972.824 45.4109C960.857 45.4109 950.561 47.5221 941.938 51.7458C933.49 55.7937 926.538 61.4256 921.082 68.6414C915.802 75.681 911.843 83.7769 909.203 92.9285L908.976 93.7878C906.663 102.68 905.507 111.986 905.507 121.704L905.521 123.447C905.655 132.14 906.794 140.447 908.938 148.367C911.402 156.814 915.363 164.382 920.818 171.07C926.274 177.582 933.402 182.773 942.201 186.645C950.896 190.226 961.574 192.072 974.233 192.183L975.464 192.189C987.959 192.189 998.255 190.516 1006.35 187.173C1014.62 183.829 1021.05 179.517 1025.62 174.237C1030.2 168.957 1033.28 163.238 1034.86 157.078C1036.51 151.303 1037.16 145.683 1036.79 140.218L1036.71 139.127L997.64 137.015C997.816 140.711 997.552 144.055 996.848 147.047C996.144 149.863 994.911 152.326 993.151 154.438C991.391 156.374 989.104 157.871 986.288 158.927L985.752 159.118C983.03 160.046 979.688 160.51 975.729 160.51V159.51C979.877 159.51 983.268 158.99 985.937 157.99C988.617 156.985 990.758 155.576 992.395 153.782C994.046 151.796 995.209 149.476 995.877 146.804C996.554 143.923 996.813 140.678 996.641 137.062L996.588 135.957L1037.63 138.175L1037.71 139.036C1038.25 144.978 1037.61 151.087 1035.82 157.353C1034.2 163.667 1031.04 169.515 1026.38 174.892C1021.67 180.32 1015.1 184.713 1006.73 188.1C998.47 191.509 988.035 193.189 975.464 193.189C962.178 193.189 950.952 191.33 941.82 187.57L941.799 187.56C932.877 183.635 925.619 178.356 920.052 171.712L920.043 171.702C914.501 164.908 910.479 157.22 907.979 148.646L907.977 148.637L907.974 148.628C905.661 140.09 904.507 131.114 904.507 121.704ZM973.397 78.9412C979.285 79.0317 983.934 80.5262 987.344 83.4246C990.864 86.2404 993.24 90.4647 994.472 96.0964C995.019 98.217 995.379 100.537 995.554 103.056L947.842 103.977C948.108 102.366 948.419 100.821 948.777 99.3435L949.065 98.2087C950.6 92.2413 953.208 87.5949 956.89 84.2703L957.249 83.9529C961.121 80.6091 966.313 78.9373 972.824 78.9373L973.397 78.9412ZM972.824 79.9373C966.485 79.9373 961.547 81.5617 957.902 84.7097C954.219 87.8911 951.58 92.447 950.034 98.4578L950.032 98.4646C949.654 99.8925 949.322 101.389 949.035 102.954L994.471 102.077C994.28 100.017 993.957 98.1069 993.503 96.3464L993.498 96.3289L993.494 96.3103C992.297 90.8389 990.015 86.8426 986.719 84.2058L986.707 84.197L986.696 84.1873C983.41 81.3939 978.827 79.9373 972.824 79.9373Z" fill="#6E97F2"/>
</g>
<g filter="url(#filter2_f_14767_8541)">
<path d="M814.698 48.1062L838.463 151.002L863.273 48.1062H908.173L865.596 189.493H809.728L767.15 48.1062H814.698ZM768.496 49.1062L810.471 188.493H864.853L906.827 49.1062H864.061L838.981 153.118H837.926L813.902 49.1062H768.496Z" fill="#6E97F2"/>
</g>
<g filter="url(#filter3_f_14767_8541)">
<path d="M724.043 94.7761C724.043 89.9685 722.243 86.4219 718.672 83.9871L718.663 83.9812L718.654 83.9744C715.179 81.4921 710.476 80.2009 704.452 80.2009C700.704 80.2009 696.948 80.8821 693.179 82.2527C689.523 83.582 686.52 85.9901 684.165 89.5232L684.158 89.533L684.152 89.5427C681.863 92.8136 680.727 97.6688 680.9 104.254L680.93 105.354L640.916 102.575L640.887 101.672C640.531 90.4746 642.217 81.1409 646.013 73.7292C649.781 66.1969 654.911 60.3363 661.411 56.1833C668.019 51.8983 675.164 48.8616 682.843 47.0759L682.848 47.075C690.66 45.2994 698.39 44.4109 706.036 44.4109C720.053 44.4109 731.677 47.0705 740.848 52.4607C750.015 57.6732 756.758 65.3173 761.064 75.3552L761.478 76.2849C765.675 85.9472 767.754 97.578 767.754 111.144V189.493H728.795V152.032C727.704 158.86 725.144 165.221 721.117 171.106C716.622 177.757 710.603 183.141 703.084 187.259L703.077 187.262C695.694 191.224 687.167 193.189 677.525 193.189C670.366 193.189 663.555 191.935 657.1 189.425C650.588 186.892 645.243 182.817 641.083 177.21L641.079 177.203L641.074 177.197C636.868 171.345 634.814 163.64 634.814 154.175C634.814 145.431 636.509 138.274 639.985 132.784C643.418 127.187 648.029 122.761 653.804 119.512C659.164 116.333 664.989 113.939 671.277 112.331L672.543 112.018C678.405 110.476 684.202 109.136 689.932 107.998L692.387 107.521C701.534 105.762 708.382 104.357 712.938 103.305C717.504 102.252 720.361 101.062 721.739 99.8367L721.778 99.8035C723.277 98.6046 724.043 96.9686 724.043 94.7761ZM724.043 125.399V125.325C721.157 126.493 717.951 127.459 714.432 128.224L714.412 128.229L714.391 128.232C710.354 128.934 706.229 129.724 702.016 130.602L702 130.605L701.983 130.608C697.998 131.301 694.282 132.339 690.832 133.719L690.791 133.735C687.391 134.925 684.623 136.611 682.456 138.778C680.583 140.651 679.581 143.358 679.581 147.047C679.581 151.351 681.051 154.552 683.923 156.798C687.074 158.946 690.823 160.038 695.213 160.038V161.038L694.361 161.024C690.144 160.89 686.468 159.751 683.333 157.606C680.264 155.219 678.682 151.841 678.586 147.472L678.581 147.047C678.581 143.296 679.572 140.37 681.554 138.271L681.749 138.071C683.894 135.926 686.58 134.245 689.808 133.028L690.461 132.791C693.761 131.471 697.293 130.461 701.057 129.76L701.812 129.623C704.98 128.963 708.098 128.353 711.167 127.792L714.22 127.248C718.268 126.368 721.875 125.223 725.043 123.815V125.399C725.043 132.263 724.076 138.071 722.14 142.823L721.77 143.67C719.882 147.846 717.453 151.171 714.483 153.646C711.492 156.286 708.236 158.222 704.716 159.454C701.372 160.51 698.205 161.038 695.213 161.038V160.038C698.082 160.038 701.143 159.532 704.399 158.505C707.784 157.318 710.924 155.453 713.822 152.896L713.833 152.887L713.844 152.878C716.864 150.361 719.327 146.898 721.213 142.445C723.087 137.846 724.043 132.175 724.043 125.399ZM725.043 94.7761C725.043 97.24 724.163 99.1768 722.403 100.585L722.089 100.846C720.429 102.146 717.454 103.29 713.164 104.28L711.341 104.693C706.836 105.694 700.58 106.964 692.572 108.504C686.061 109.736 679.461 111.232 672.773 112.992C666.086 114.576 659.926 117.04 654.294 120.384C648.662 123.551 644.174 127.863 640.83 133.319C637.486 138.599 635.814 145.551 635.814 154.175L635.82 155.044C635.943 163.968 637.965 171.157 641.887 176.613C645.935 182.069 651.126 186.029 657.462 188.493C663.402 190.803 669.651 192.03 676.209 192.175L677.525 192.189C686.732 192.189 694.864 190.372 701.924 186.738L702.604 186.381C709.996 182.333 715.891 177.053 720.291 170.542C724.867 163.854 727.507 156.55 728.211 148.631H729.795V188.493H766.754V111.144C766.754 97.2409 764.554 85.4489 760.154 75.7693C755.93 65.9137 749.33 58.4336 740.354 53.3298C731.659 48.2151 720.652 45.5785 707.332 45.4187L706.036 45.4109C698.469 45.4109 690.813 46.2907 683.069 48.0505L682.361 48.2195C675.062 49.999 668.258 52.9342 661.949 57.0261L661.359 57.4109C655.302 61.4334 650.483 67.0248 646.902 74.1853C643.206 81.401 641.535 90.5528 641.887 101.64L679.901 104.28C679.731 97.8015 680.799 92.8092 683.105 89.3035L683.333 88.9685C685.72 85.3882 688.767 82.8812 692.476 81.448L692.837 81.3132C696.709 79.9054 700.58 79.2009 704.452 79.2009L705.026 79.2048C710.919 79.2848 715.655 80.6036 719.235 83.1609C723.107 85.8007 725.043 89.6726 725.043 94.7761Z" fill="#6E97F2"/>
</g>
<g filter="url(#filter4_f_14767_8541)">
<path d="M623.011 109.56C623.011 88.0891 619.403 72.073 612.188 61.5134C605.084 50.9458 594.23 45.5799 579.623 45.4148L578.925 45.4109C569.421 45.4109 561.325 47.6107 554.638 52.0105C547.95 56.2343 542.671 63.0101 538.799 72.3376C534.927 81.4893 532.199 93.3689 530.615 107.976H528.239C528.767 103.753 529.383 98.5607 530.087 92.4011C530.967 86.0654 531.759 79.4651 532.463 72.6013C533.343 65.7376 533.959 59.3136 534.311 53.3298C534.839 47.1702 535.103 42.2424 535.103 38.5466V3.69995H492.336V188.493H535.103V141.239C535.103 127.512 536.335 116.335 538.799 107.712C541.439 99.0883 544.87 92.8403 549.094 88.9685C553.318 84.9207 558.07 82.8972 563.35 82.8972L563.905 82.9041C569.601 83.0425 573.728 85.3277 576.285 89.7605C578.925 94.3363 580.245 101.552 580.245 111.408V188.493H623.011V109.56ZM536.103 38.5466C536.103 42.2835 535.836 47.2437 535.307 53.4158C534.953 59.4178 534.336 65.8556 533.455 72.7283C532.751 79.5928 531.959 86.1951 531.078 92.5349C530.436 98.1527 529.866 102.967 529.37 106.976H529.721C531.324 92.7221 534.033 81.0376 537.875 71.9539L538.248 71.074C542.14 62.0632 547.406 55.3998 554.088 51.1746C560.967 46.6486 569.263 44.4109 578.925 44.4109C594.154 44.4109 605.581 49.8953 613.014 60.95L613.356 61.4597C620.508 72.263 624.011 88.347 624.011 109.56V189.493H579.245V111.408C579.245 101.6 577.924 94.6025 575.419 90.2605C572.984 86.0407 569.033 83.8972 563.35 83.8972C558.356 83.8972 553.846 85.8007 549.786 89.6912L549.778 89.698L549.77 89.7058C545.732 93.4068 542.37 99.4626 539.755 108.005C537.33 116.503 536.103 127.57 536.103 141.239V189.493H491.336V2.69995H536.103V38.5466Z" fill="#6E97F2"/>
</g>
<g filter="url(#filter5_f_14767_8541)">
<path d="M345.334 121.704C345.334 111.59 346.575 101.91 349.063 92.6687L349.066 92.6599L349.068 92.6511C351.739 83.3928 355.751 75.1861 361.109 68.0417L361.111 68.0388C366.667 60.6912 373.746 54.9588 382.332 50.8445C391.121 46.5417 401.572 44.4109 413.651 44.4109C425.723 44.4109 436.083 46.5392 444.697 50.8406C453.471 54.9589 460.477 60.7915 465.688 68.3376C470.883 75.8626 474.19 84.5403 475.619 94.3513L475.765 95.2722C477.211 104.819 476.981 115.096 475.09 126.096L474.949 126.914L388.85 128.262C389.65 137.993 391.879 145.258 395.451 150.153C399.972 156.348 406.939 159.51 416.555 159.51V160.51L415.639 160.501C406.245 160.304 399.247 157.05 394.644 150.742C390.792 145.464 388.502 137.643 387.772 127.279L474.104 125.927C476.04 114.664 476.217 104.192 474.633 94.5125C473.269 85.1355 470.17 76.8322 465.338 69.6023L464.865 68.906C459.761 61.5143 452.897 55.7937 444.273 51.7458C436.09 47.6541 426.254 45.5446 414.768 45.4167L413.651 45.4109C401.684 45.4109 391.387 47.522 382.764 51.7458C374.316 55.7936 367.365 61.4258 361.909 68.6414C356.629 75.681 352.669 83.7769 350.029 92.9285C347.565 102.08 346.334 111.672 346.334 121.704L346.347 123.447C346.481 132.14 347.621 140.447 349.766 148.367C352.23 156.814 356.189 164.382 361.645 171.07C367.1 177.582 374.229 182.773 383.028 186.645C391.723 190.226 402.401 192.071 415.06 192.183L416.291 192.189C428.786 192.189 439.082 190.516 447.178 187.173C455.191 183.933 461.47 179.786 466.015 174.729L466.449 174.237C471.025 168.957 474.105 163.237 475.688 157.078C477.448 150.918 478.064 144.934 477.536 139.127L438.466 137.015C438.642 140.711 438.378 144.055 437.674 147.047C436.97 149.862 435.738 152.326 433.979 154.438C432.219 156.374 429.93 157.871 427.114 158.927L426.578 159.118C423.856 160.046 420.515 160.51 416.555 160.51V159.51C420.703 159.51 424.095 158.991 426.764 157.99C429.445 156.985 431.586 155.576 433.222 153.782C434.87 151.799 436.032 149.483 436.7 146.817C437.379 143.932 437.639 140.683 437.467 137.062L437.414 135.957L478.454 138.175L478.532 139.036C479.072 144.978 478.441 151.087 476.65 157.353C475.022 163.667 471.865 169.515 467.204 174.892C462.5 180.32 455.931 184.713 447.553 188.1C439.297 191.509 428.862 193.189 416.291 193.189C403.005 193.189 391.779 191.33 382.647 187.57L382.637 187.565L382.625 187.56C373.703 183.635 366.445 178.356 360.878 171.712L360.87 171.702C355.328 164.908 351.306 157.22 348.806 148.646L348.803 148.637L348.8 148.628C346.487 140.09 345.334 131.114 345.334 121.704ZM414.225 78.9412C420.112 79.0317 424.76 80.5265 428.17 83.4246C431.69 86.2404 434.066 90.4647 435.298 96.0964C435.845 98.217 436.205 100.537 436.38 103.056L388.668 103.977C388.934 102.366 389.246 100.822 389.604 99.3435L389.892 98.2087C391.476 92.049 394.203 87.2967 398.075 83.9529C401.947 80.609 407.14 78.9373 413.651 78.9373L414.225 78.9412ZM413.651 79.9373C407.312 79.9373 402.375 81.5619 398.729 84.7097C395.046 87.8911 392.406 92.447 390.86 98.4578L390.858 98.4646C390.48 99.8925 390.148 101.389 389.861 102.954L435.298 102.077C435.107 100.017 434.784 98.1068 434.33 96.3464L434.325 96.3289L434.321 96.3103C433.124 90.8389 430.842 86.8427 427.546 84.2058L427.534 84.197L427.522 84.1873C424.236 81.3939 419.653 79.9373 413.651 79.9373Z" fill="#6E97F2"/>
</g>
<g filter="url(#filter6_f_14767_8541)">
<path d="M261.681 48.1062L261.945 48.696L282.008 93.2488H282.028L301.827 48.1062H353.355L310.777 118.534L353.888 189.493H301.032L281.869 145.39L260.606 189.493H209.069L253.519 118.534L209.602 48.1062H261.681ZM211.404 49.1062L254.698 118.536L210.876 188.493H259.978L281.361 144.142H282.417L301.688 188.493H352.11L309.608 118.536L351.582 49.1062H302.48L282.681 94.2488H281.361L261.034 49.1062H211.404Z" fill="#6E97F2"/>
</g>
<g filter="url(#filter7_f_14767_8541)">
<path d="M113.822 127.248V49.1062H71.0566V127.775L71.0664 129.804C71.2848 150.605 74.8896 166.12 81.8799 176.349C89.1561 186.744 100.184 192.023 114.964 192.185L115.671 192.189C125.174 192.189 133.182 190.165 139.693 186.117C146.002 182.196 150.989 176.21 154.654 168.159L155.005 167.374C158.701 158.75 161.077 147.663 162.133 134.111H163.98V188.493H200.411V49.1062H157.645V102.961L157.637 104.661C157.554 113.086 156.853 120.351 155.533 126.456L155.295 127.663C154.068 133.633 152.299 138.599 149.989 142.558C147.525 146.606 144.621 149.687 141.277 151.799L140.68 152.15C137.669 153.852 134.348 154.702 130.718 154.702V153.702C134.411 153.702 137.746 152.782 140.748 150.949C143.932 148.937 146.728 145.986 149.124 142.054C151.514 137.957 153.333 132.706 154.551 126.269L154.553 126.257L154.556 126.244C155.944 119.822 156.645 112.065 156.645 102.961V48.1062H201.411V189.493H162.98V135.975C161.854 148.788 159.512 159.395 155.924 167.767L155.921 167.774C152.161 176.369 146.938 182.792 140.222 186.967C133.518 191.134 125.316 193.189 115.671 193.189C100.274 193.189 88.6739 187.799 81.0605 176.923L81.0537 176.914C73.6694 166.107 70.0566 149.673 70.0566 127.775V48.1062H114.822V127.248C114.822 137.417 116.237 144.266 118.858 148.046C121.644 151.808 125.553 153.702 130.718 153.702V154.702C125.262 154.702 121.039 152.678 118.047 148.631C115.319 144.709 113.912 137.897 113.827 128.195L113.822 127.248Z" fill="#6E97F2"/>
</g>
<g filter="url(#filter8_f_14767_8541)">
<path d="M53.2695 3.69995H10.5039V188.493H53.2695V3.69995ZM54.2695 189.493H9.50391V2.69995H54.2695V189.493Z" fill="#6E97F2"/>
</g>
<g filter="url(#filter9_f_14767_8541)">
<path d="M1051.51 188.493V109.56V49.1063H1087.68V105.864H1089.79C1090.84 92.1366 1093.13 80.873 1096.65 72.0734C1100.17 63.0977 1105.19 56.41 1111.7 52.0102C1118.21 47.6103 1126.48 45.4104 1136.51 45.4104C1151.65 45.4104 1163 50.4262 1170.57 60.4578C1178.31 70.4894 1182.18 85.4488 1182.18 105.336V188.493H1139.42V110.88C1139.42 101.376 1137.92 94.2485 1134.93 89.4967C1132.11 84.7449 1127.54 82.369 1121.2 82.369C1115.92 82.369 1111.26 84.2169 1107.21 87.9128C1103.16 91.6086 1100 97.5924 1097.71 105.864C1095.42 114.136 1094.28 125.223 1094.28 139.127V188.493H1051.51Z" fill="white" fill-opacity="0.17"/>
</g>
<g filter="url(#filter10_f_14767_8541)">
<path d="M975.464 192.189C962.265 192.189 951.177 190.341 942.201 186.645C933.402 182.773 926.274 177.581 920.818 171.07C915.363 164.382 911.403 156.814 908.939 148.366C906.651 139.919 905.507 131.031 905.507 121.703C905.507 111.672 906.739 102.08 909.203 92.9286C911.843 83.7769 915.803 75.6812 921.082 68.6415C926.538 61.4258 933.49 55.794 941.938 51.7462C950.561 47.5223 960.857 45.4104 972.824 45.4104C984.792 45.4104 994.999 47.5223 1003.45 51.7462C1012.07 55.794 1018.93 61.5138 1024.04 68.9055C1029.14 76.2972 1032.4 84.8329 1033.81 94.5125C1035.39 104.192 1035.21 114.664 1033.28 125.927L932.17 127.511V104.28L1000.54 102.96L994.999 116.424C996.055 108.328 995.879 101.552 994.471 96.0964C993.239 90.4646 990.864 86.2408 987.344 83.4249C983.824 80.433 978.984 78.9371 972.824 78.9371C966.313 78.9371 961.121 80.609 957.249 83.9529C953.377 87.2968 950.649 92.0486 949.065 98.2083C947.481 104.192 946.689 111.32 946.689 119.592C946.689 133.847 949.065 144.231 953.817 150.742C958.569 157.254 965.873 160.51 975.728 160.51C979.952 160.51 983.472 159.982 986.288 158.926C989.104 157.87 991.392 156.374 993.151 154.438C994.911 152.326 996.143 149.862 996.847 147.046C997.551 144.055 997.815 140.711 997.639 137.015L1036.71 139.127C1037.24 144.935 1036.62 150.918 1034.86 157.078C1033.28 163.238 1030.2 168.958 1025.62 174.237C1021.05 179.517 1014.62 183.829 1006.35 187.173C998.255 190.517 987.96 192.189 975.464 192.189Z" fill="white" fill-opacity="0.17"/>
</g>
<g filter="url(#filter11_f_14767_8541)">
<path d="M810.471 188.493L768.496 49.1064H813.903L837.926 153.118H838.982L864.061 49.1064H906.827L864.853 188.493H810.471Z" fill="white" fill-opacity="0.17"/>
</g>
<g filter="url(#filter12_f_14767_8541)">
<path d="M677.525 192.189C670.485 192.189 663.798 190.957 657.462 188.493C651.126 186.029 645.934 182.069 641.887 176.613C637.839 170.981 635.815 163.502 635.815 154.174C635.815 145.55 637.487 138.599 640.831 133.319C644.174 127.863 648.662 123.551 654.294 120.383C659.926 117.04 666.086 114.576 672.773 112.992C679.461 111.232 686.061 109.736 692.573 108.504C701.724 106.744 708.588 105.336 713.164 104.28C717.74 103.224 720.819 101.992 722.403 100.584C724.163 99.1763 725.043 97.2404 725.043 94.7765C725.043 89.6727 723.107 85.8008 719.236 83.1609C715.54 80.521 710.612 79.2011 704.452 79.2011C700.58 79.2011 696.708 79.9051 692.837 81.313C688.965 82.7209 685.797 85.2729 683.333 88.9687C680.869 92.4886 679.725 97.5924 679.901 104.28L641.887 101.64C641.535 90.5526 643.206 81.401 646.902 74.1853C650.598 66.7936 655.614 61.0738 661.95 57.026C668.461 52.8021 675.501 49.8102 683.069 48.0503C690.813 46.2904 698.468 45.4104 706.036 45.4104C719.939 45.4104 731.379 48.0503 740.355 53.3301C749.33 58.4339 755.93 65.9136 760.154 75.7692C764.554 85.4488 766.754 97.2404 766.754 111.144V135.959C766.754 141.767 766.754 147.662 766.754 153.646C766.754 159.454 766.754 165.262 766.754 171.07C766.754 176.877 766.754 182.685 766.754 188.493H729.795C729.795 182.157 729.795 175.733 729.795 169.222C729.795 162.71 729.795 155.846 729.795 148.63H728.211C727.507 156.55 724.867 163.854 720.291 170.542C715.892 177.053 709.996 182.333 702.604 186.381C695.388 190.253 687.029 192.189 677.525 192.189ZM695.212 161.038C698.204 161.038 701.372 160.51 704.716 159.454C708.236 158.222 711.492 156.286 714.484 153.646C717.652 151.006 720.203 147.398 722.139 142.823C724.075 138.071 725.043 132.263 725.043 125.399V119.064L732.171 118.272C730.763 120.559 728.387 122.407 725.043 123.815C721.875 125.223 718.268 126.367 714.22 127.247C710.172 127.951 706.036 128.743 701.812 129.623C697.764 130.327 693.98 131.383 690.461 132.791C686.941 134.023 684.037 135.783 681.749 138.071C679.637 140.183 678.581 143.175 678.581 147.046C678.581 151.622 680.165 155.142 683.333 157.606C686.677 159.894 690.637 161.038 695.212 161.038Z" fill="white" fill-opacity="0.17"/>
</g>
<g filter="url(#filter13_f_14767_8541)">
<path d="M492.336 188.493V114.84V3.7002H535.103V38.5468C535.103 42.2427 534.839 47.1705 534.311 53.3303C533.959 59.314 533.343 65.7378 532.463 72.6015C531.759 79.4652 530.967 86.065 530.087 92.4007C529.383 98.5605 528.767 103.752 528.239 107.976H530.615C532.199 93.3687 534.927 81.4892 538.798 72.3375C542.67 63.0099 547.95 56.2341 554.638 52.0103C561.326 47.6105 569.421 45.4106 578.925 45.4106C593.884 45.4106 604.972 50.7783 612.188 61.5139C619.403 72.0735 623.011 88.0889 623.011 109.56V188.493H580.245V111.408C580.245 101.552 578.925 94.3367 576.285 89.7608C573.645 85.185 569.333 82.8971 563.35 82.8971C558.07 82.8971 553.318 84.921 549.094 88.9689C544.87 92.8407 541.438 99.0885 538.798 107.712C536.335 116.336 535.103 127.511 535.103 141.239V188.493H492.336Z" fill="white" fill-opacity="0.17"/>
</g>
<g filter="url(#filter14_f_14767_8541)">
<path d="M416.291 192.189C403.091 192.189 392.004 190.341 383.028 186.645C374.228 182.773 367.101 177.581 361.645 171.07C356.189 164.382 352.229 156.814 349.765 148.366C347.477 139.919 346.334 131.031 346.334 121.703C346.334 111.672 347.565 102.08 350.029 92.9286C352.669 83.7769 356.629 75.6812 361.909 68.6415C367.365 61.4258 374.316 55.794 382.764 51.7462C391.388 47.5223 401.683 45.4104 413.651 45.4104C425.618 45.4104 435.826 47.5223 444.274 51.7462C452.897 55.794 459.761 61.5138 464.865 68.9055C469.969 76.2972 473.225 84.8329 474.633 94.5125C476.216 104.192 476.04 114.664 474.105 125.927L372.996 127.511V104.28L441.37 102.96L435.826 116.424C436.882 108.328 436.706 101.552 435.298 96.0964C434.066 90.4646 431.69 86.2408 428.17 83.4249C424.65 80.433 419.811 78.9371 413.651 78.9371C407.139 78.9371 401.947 80.609 398.076 83.9529C394.204 87.2968 391.476 92.0486 389.892 98.2083C388.308 104.192 387.516 111.32 387.516 119.592C387.516 133.847 389.892 144.231 394.644 150.742C399.395 157.254 406.699 160.51 416.555 160.51C420.779 160.51 424.298 159.982 427.114 158.926C429.93 157.87 432.218 156.374 433.978 154.438C435.738 152.326 436.97 149.862 437.674 147.046C438.378 144.055 438.642 140.711 438.466 137.015L477.536 139.127C478.064 144.935 477.448 150.918 475.688 157.078C474.105 163.238 471.025 168.958 466.449 174.237C461.873 179.517 455.449 183.829 447.178 187.173C439.082 190.517 428.786 192.189 416.291 192.189Z" fill="white" fill-opacity="0.17"/>
</g>
<g filter="url(#filter15_f_14767_8541)">
<path d="M210.876 188.493L254.698 118.536L211.404 49.1064H261.034L281.361 94.2487H282.681L302.48 49.1064H351.582L309.608 118.536L352.11 188.493H301.688L282.417 144.143H281.361L259.978 188.493H210.876Z" fill="white" fill-opacity="0.17"/>
</g>
<g filter="url(#filter16_f_14767_8541)">
<path d="M115.671 192.189C100.535 192.189 89.2715 186.909 81.8798 176.349C74.6641 165.79 71.0562 149.599 71.0562 127.775V49.1064H113.823V127.247C113.823 137.455 115.231 144.583 118.046 148.631C121.038 152.678 125.262 154.702 130.718 154.702C134.59 154.702 138.11 153.734 141.278 151.798C144.621 149.686 147.525 146.607 149.989 142.559C152.453 138.335 154.301 132.967 155.533 126.455C156.941 119.944 157.645 112.112 157.645 102.96V49.1064H200.411V125.663V188.493H163.981V134.111H162.133C161.077 147.663 158.701 158.75 155.005 167.374C151.309 175.821 146.205 182.069 139.694 186.117C133.182 190.165 125.174 192.189 115.671 192.189Z" fill="white" fill-opacity="0.17"/>
</g>
<g filter="url(#filter17_f_14767_8541)">
<path d="M10.5036 188.493V3.7002H53.27V188.493H10.5036Z" fill="white" fill-opacity="0.17"/>
</g>
<rect y="23.4929" width="1192" height="175" fill="url(#paint0_linear_14767_8541)"/>
<defs>
<filter id="filter0_f_14767_8541" x="1047.81" y="41.7109" width="138.075" height="150.482" filterUnits="userSpaceOnUse" color-interpolation-filters="sRGB">
<feFlood flood-opacity="0" result="BackgroundImageFix"/>
<feBlend mode="normal" in="SourceGraphic" in2="BackgroundImageFix" result="shape"/>
<feGaussianBlur stdDeviation="1.35" result="effect1_foregroundBlur_14767_8541"/>
</filter>
<filter id="filter1_f_14767_8541" x="901.807" y="41.7109" width="138.786" height="154.178" filterUnits="userSpaceOnUse" color-interpolation-filters="sRGB">
<feFlood flood-opacity="0" result="BackgroundImageFix"/>
<feBlend mode="normal" in="SourceGraphic" in2="BackgroundImageFix" result="shape"/>
<feGaussianBlur stdDeviation="1.35" result="effect1_foregroundBlur_14767_8541"/>
</filter>
<filter id="filter2_f_14767_8541" x="764.45" y="45.4062" width="146.422" height="146.787" filterUnits="userSpaceOnUse" color-interpolation-filters="sRGB">
<feFlood flood-opacity="0" result="BackgroundImageFix"/>
<feBlend mode="normal" in="SourceGraphic" in2="BackgroundImageFix" result="shape"/>
<feGaussianBlur stdDeviation="1.35" result="effect1_foregroundBlur_14767_8541"/>
</filter>
<filter id="filter3_f_14767_8541" x="632.114" y="41.7109" width="138.339" height="154.178" filterUnits="userSpaceOnUse" color-interpolation-filters="sRGB">
<feFlood flood-opacity="0" result="BackgroundImageFix"/>
<feBlend mode="normal" in="SourceGraphic" in2="BackgroundImageFix" result="shape"/>
<feGaussianBlur stdDeviation="1.35" result="effect1_foregroundBlur_14767_8541"/>
</filter>
<filter id="filter4_f_14767_8541" x="488.636" y="-4.88758e-05" width="138.075" height="192.193" filterUnits="userSpaceOnUse" color-interpolation-filters="sRGB">
<feFlood flood-opacity="0" result="BackgroundImageFix"/>
<feBlend mode="normal" in="SourceGraphic" in2="BackgroundImageFix" result="shape"/>
<feGaussianBlur stdDeviation="1.35" result="effect1_foregroundBlur_14767_8541"/>
</filter>
<filter id="filter5_f_14767_8541" x="342.634" y="41.7109" width="138.785" height="154.178" filterUnits="userSpaceOnUse" color-interpolation-filters="sRGB">
<feFlood flood-opacity="0" result="BackgroundImageFix"/>
<feBlend mode="normal" in="SourceGraphic" in2="BackgroundImageFix" result="shape"/>
<feGaussianBlur stdDeviation="1.35" result="effect1_foregroundBlur_14767_8541"/>
</filter>
<filter id="filter6_f_14767_8541" x="206.369" y="45.4062" width="150.218" height="146.787" filterUnits="userSpaceOnUse" color-interpolation-filters="sRGB">
<feFlood flood-opacity="0" result="BackgroundImageFix"/>
<feBlend mode="normal" in="SourceGraphic" in2="BackgroundImageFix" result="shape"/>
<feGaussianBlur stdDeviation="1.35" result="effect1_foregroundBlur_14767_8541"/>
</filter>
<filter id="filter7_f_14767_8541" x="67.3566" y="45.4062" width="136.754" height="150.483" filterUnits="userSpaceOnUse" color-interpolation-filters="sRGB">
<feFlood flood-opacity="0" result="BackgroundImageFix"/>
<feBlend mode="normal" in="SourceGraphic" in2="BackgroundImageFix" result="shape"/>
<feGaussianBlur stdDeviation="1.35" result="effect1_foregroundBlur_14767_8541"/>
</filter>
<filter id="filter8_f_14767_8541" x="6.80391" y="-4.88758e-05" width="50.1656" height="192.193" filterUnits="userSpaceOnUse" color-interpolation-filters="sRGB">
<feFlood flood-opacity="0" result="BackgroundImageFix"/>
<feBlend mode="normal" in="SourceGraphic" in2="BackgroundImageFix" result="shape"/>
<feGaussianBlur stdDeviation="1.35" result="effect1_foregroundBlur_14767_8541"/>
</filter>
<filter id="filter9_f_14767_8541" x="1048.81" y="42.7104" width="136.075" height="148.483" filterUnits="userSpaceOnUse" color-interpolation-filters="sRGB">
<feFlood flood-opacity="0" result="BackgroundImageFix"/>
<feBlend mode="normal" in="SourceGraphic" in2="BackgroundImageFix" result="shape"/>
<feGaussianBlur stdDeviation="1.35" result="effect1_foregroundBlur_14767_8541"/>
</filter>
<filter id="filter10_f_14767_8541" x="902.807" y="42.7104" width="136.786" height="152.178" filterUnits="userSpaceOnUse" color-interpolation-filters="sRGB">
<feFlood flood-opacity="0" result="BackgroundImageFix"/>
<feBlend mode="normal" in="SourceGraphic" in2="BackgroundImageFix" result="shape"/>
<feGaussianBlur stdDeviation="1.35" result="effect1_foregroundBlur_14767_8541"/>
</filter>
<filter id="filter11_f_14767_8541" x="765.796" y="46.4064" width="143.731" height="144.786" filterUnits="userSpaceOnUse" color-interpolation-filters="sRGB">
<feFlood flood-opacity="0" result="BackgroundImageFix"/>
<feBlend mode="normal" in="SourceGraphic" in2="BackgroundImageFix" result="shape"/>
<feGaussianBlur stdDeviation="1.35" result="effect1_foregroundBlur_14767_8541"/>
</filter>
<filter id="filter12_f_14767_8541" x="633.115" y="42.7104" width="136.339" height="152.178" filterUnits="userSpaceOnUse" color-interpolation-filters="sRGB">
<feFlood flood-opacity="0" result="BackgroundImageFix"/>
<feBlend mode="normal" in="SourceGraphic" in2="BackgroundImageFix" result="shape"/>
<feGaussianBlur stdDeviation="1.35" result="effect1_foregroundBlur_14767_8541"/>
</filter>
<filter id="filter13_f_14767_8541" x="489.636" y="1.0002" width="136.075" height="190.193" filterUnits="userSpaceOnUse" color-interpolation-filters="sRGB">
<feFlood flood-opacity="0" result="BackgroundImageFix"/>
<feBlend mode="normal" in="SourceGraphic" in2="BackgroundImageFix" result="shape"/>
<feGaussianBlur stdDeviation="1.35" result="effect1_foregroundBlur_14767_8541"/>
</filter>
<filter id="filter14_f_14767_8541" x="343.634" y="42.7104" width="136.786" height="152.178" filterUnits="userSpaceOnUse" color-interpolation-filters="sRGB">
<feFlood flood-opacity="0" result="BackgroundImageFix"/>
<feBlend mode="normal" in="SourceGraphic" in2="BackgroundImageFix" result="shape"/>
<feGaussianBlur stdDeviation="1.35" result="effect1_foregroundBlur_14767_8541"/>
</filter>
<filter id="filter15_f_14767_8541" x="208.176" y="46.4064" width="146.634" height="144.786" filterUnits="userSpaceOnUse" color-interpolation-filters="sRGB">
<feFlood flood-opacity="0" result="BackgroundImageFix"/>
<feBlend mode="normal" in="SourceGraphic" in2="BackgroundImageFix" result="shape"/>
<feGaussianBlur stdDeviation="1.35" result="effect1_foregroundBlur_14767_8541"/>
</filter>
<filter id="filter16_f_14767_8541" x="68.3562" y="46.4064" width="134.755" height="148.482" filterUnits="userSpaceOnUse" color-interpolation-filters="sRGB">
<feFlood flood-opacity="0" result="BackgroundImageFix"/>
<feBlend mode="normal" in="SourceGraphic" in2="BackgroundImageFix" result="shape"/>
<feGaussianBlur stdDeviation="1.35" result="effect1_foregroundBlur_14767_8541"/>
</filter>
<filter id="filter17_f_14767_8541" x="7.80363" y="1.0002" width="48.1663" height="190.193" filterUnits="userSpaceOnUse" color-interpolation-filters="sRGB">
<feFlood flood-opacity="0" result="BackgroundImageFix"/>
<feBlend mode="normal" in="SourceGraphic" in2="BackgroundImageFix" result="shape"/>
<feGaussianBlur stdDeviation="1.35" result="effect1_foregroundBlur_14767_8541"/>
</filter>
<linearGradient id="paint0_linear_14767_8541" x1="572.896" y1="40.5068" x2="572.896" y2="198.493" gradientUnits="userSpaceOnUse">
<stop stop-color="#2563EB" stop-opacity="0"/>
<stop offset="1" stop-color="#2563EB"/>
</linearGradient>
</defs>
</svg>
