<svg width="1192" height="286" viewBox="0 0 1192 286" fill="none" xmlns="http://www.w3.org/2000/svg">
<g clip-path="url(#clip0_14838_4342)">
<g filter="url(#filter0_f_14838_4342)">
<mask id="path-1-outside-1_14838_4342" maskUnits="userSpaceOnUse" x="6" y="36" width="1182" height="210" fill="black">
<rect fill="white" x="6" y="36" width="1182" height="210"/>
<path d="M161.922 225.355C175.068 225.355 185.686 222.764 193.775 217.581L195.103 219.098C184.232 234.14 170.707 242.483 154.527 244.126C151.115 244.505 148.144 244.695 145.616 244.695C143.214 244.695 140.37 244.568 137.084 244.315C133.924 244.189 129.436 243.367 123.622 241.851C117.807 240.334 112.688 238.754 108.264 237.11C103.84 235.594 98.7206 233.508 92.906 230.853C87.0915 228.325 82.2882 226.05 78.4961 224.028C74.704 222.132 70.1535 219.793 64.8446 217.012C59.6621 214.358 55.1116 212.083 51.1931 210.187C47.2746 208.291 43.4826 206.647 39.8169 205.257C29.4518 201.086 18.834 199 7.96337 199V197.104H10.4282C13.7147 197.104 16.4956 195.966 18.7708 193.691C21.1725 191.416 22.4365 188.572 22.5629 185.159V80.1182C22.4365 76.7053 21.1725 73.8613 18.7708 71.586C16.4956 69.3108 13.7147 68.1731 10.4282 68.1731H7.96337V66.2771H65.603L65.4134 68.1731H63.5174C58.7141 68.1731 55.1116 70.1324 52.71 74.0509C51.5723 75.8205 51.0035 77.8429 51.0035 80.1182V190.089C51.0035 194.26 51.8251 197.167 53.4684 198.81C55.1116 200.327 56.9444 201.402 58.9669 202.034C106.494 217.581 140.813 225.355 161.922 225.355ZM230.702 68.1731H227.479C224.825 68.1731 222.486 69.058 220.464 70.8276C218.568 72.4708 217.62 74.5565 217.62 77.0845V151.03C217.62 166.578 212.753 178.902 203.02 188.003C193.287 197.104 179.952 201.654 163.014 201.654C143.042 201.654 127.747 197.23 117.129 188.382C106.512 179.408 101.203 167.02 101.203 151.22V77.6533C101.203 74.8725 100.191 72.5972 98.169 70.8276C96.273 69.058 93.9345 68.1731 91.1537 68.1731H88.12V66.2771H142.726V68.1731H139.692C136.911 68.1731 134.573 69.058 132.677 70.8276C130.781 72.4708 129.77 74.6197 129.643 77.2741V149.703C129.643 163.102 132.93 173.719 139.503 181.556C146.076 189.393 155.113 193.312 166.616 193.312C178.119 193.312 187.22 189.646 193.919 182.315C200.618 174.857 204.031 164.808 204.158 152.168V77.2741C204.158 74.6197 203.147 72.4708 201.124 70.8276C199.228 69.058 196.89 68.1731 194.109 68.1731H191.075V66.2771H230.702V68.1731ZM317.975 197.104C320.629 197.104 322.778 195.84 324.422 193.312C325.18 191.921 325.559 190.594 325.559 189.33C325.559 188.066 325.18 186.802 324.422 185.538L297.877 144.204L270.005 185.349C267.856 189.141 268.488 192.427 271.901 195.208C273.418 196.472 274.998 197.104 276.641 197.104H279.106V199H232.274V197.104H234.928C242.007 197.104 248.264 193.565 253.699 186.486L291.051 133.587L255.974 79.3598C253.826 76.1997 251.045 73.5453 247.632 71.3964C244.219 69.2476 240.617 68.1731 236.824 68.1731H234.17V66.2771H298.635V68.1731H296.171C293.516 68.1731 291.367 69.4372 289.724 71.9652C288.966 73.3556 288.586 74.7461 288.586 76.1365C288.586 77.4005 288.902 78.6014 289.534 79.739L313.235 116.333L336.556 79.9286C337.315 78.6646 337.694 77.4005 337.694 76.1365C337.694 74.7461 337.251 73.4189 336.367 72.1548C334.723 69.5004 332.575 68.1731 329.92 68.1731H327.455V66.2771H374.098V68.1731H371.443C367.651 68.1731 364.112 69.2476 360.826 71.3964C357.539 73.4189 354.758 76.0101 352.483 79.1702L320.25 127.14L358.361 186.107C360.51 189.267 363.29 191.921 366.703 194.07C370.243 196.093 373.845 197.104 377.511 197.104H380.165V199H315.51V197.104H317.975ZM385.193 197.104C388.479 197.104 391.26 195.966 393.535 193.691C395.937 191.289 397.201 188.445 397.327 185.159V79.5494C396.948 75.1253 394.862 71.8388 391.07 69.69C389.174 68.6787 387.215 68.1731 385.193 68.1731H382.728V66.2771H455.346C459.265 66.2771 463.562 65.8979 468.239 65.1395C472.916 64.3811 476.203 63.6226 478.099 62.8642V96.0449H476.203V93.7697C476.203 88.0816 474.496 83.5311 471.083 80.1182C467.797 76.5789 463.31 74.6829 457.621 74.4301H425.768V129.605H450.796C455.473 129.478 459.328 127.898 462.362 124.865C465.395 121.705 466.912 117.849 466.912 113.299V111.592H468.808V155.391H466.912V153.874C466.912 147.554 464.384 142.877 459.328 139.844C456.8 138.453 454.019 137.695 450.985 137.568H425.768V190.847H450.606C459.833 190.847 467.544 188.193 473.738 182.884C480.058 177.575 484.735 170.054 487.769 160.321H489.665L480.943 199H382.728V197.104H385.193ZM592.8 197.104C596.087 197.104 598.931 195.966 601.332 193.691C603.734 191.416 604.998 188.635 605.125 185.349V136.999H545.399V185.728C545.399 200.896 541.544 212.968 533.833 221.942C527.766 229.021 519.044 232.56 507.668 232.56C504.002 232.56 500.021 232.118 495.723 231.233L495.344 229.337C504.698 225.418 510.702 219.604 513.356 211.893C515.758 205.32 516.959 196.598 516.959 185.728V79.9286C516.832 76.6421 515.568 73.8613 513.167 71.586C510.891 69.3108 508.11 68.1731 504.824 68.1731H502.359V66.2771H559.999V68.1731H557.534C552.983 68.1731 549.571 70.0692 547.295 73.8613C546.158 75.6309 545.526 77.6533 545.399 79.9286V128.846H605.125V83.3415C605.125 68.5523 609.738 56.7969 618.966 48.0751C626.297 40.8701 635.524 37.2677 646.648 37.2677C649.176 37.2677 651.83 37.4573 654.611 37.8365L654.99 39.7325C645.763 43.019 639.759 48.8335 636.978 57.1761C634.703 64.0018 633.502 72.7236 633.376 83.3415V185.159C633.502 189.709 635.524 193.122 639.443 195.398C641.339 196.535 643.425 197.104 645.7 197.104H647.975V199H590.525V197.104H592.8ZM796.877 197.104H798.583V199H738.099V197.104H739.806C742.587 197.104 744.609 196.282 745.873 194.639C747.264 192.869 747.959 191.226 747.959 189.709C747.959 188.193 747.643 186.676 747.011 185.159L737.72 161.838H693.353L683.493 185.159C682.861 186.802 682.545 188.382 682.545 189.899C682.545 191.289 683.177 192.869 684.441 194.639C685.832 196.282 687.981 197.104 690.888 197.104H692.405V199H651.829V197.104H653.536C656.443 197.104 659.35 196.219 662.258 194.45C665.165 192.68 667.567 190.025 669.463 186.486L713.261 87.3232C719.202 74.8093 722.362 66.5299 722.741 62.485H724.448L780.76 186.107C782.656 189.773 785.058 192.553 787.965 194.45C790.872 196.219 793.843 197.104 796.877 197.104ZM696.576 153.874H734.497L716.105 107.232L696.576 153.874ZM913.982 68.1731H912.276C909.369 68.1731 906.461 69.058 903.554 70.8276C900.647 72.5972 898.245 75.2517 896.349 78.791L851.413 177.954C845.598 190.468 842.502 198.747 842.122 202.792H840.416L782.966 78.9806C781.07 75.4413 778.668 72.7868 775.761 71.0172C772.854 69.1212 769.883 68.1731 766.849 68.1731H765.333V66.2771H825.627V68.1731H824.11C821.329 68.1731 819.243 69.058 817.853 70.8276C816.589 72.4708 815.957 74.0509 815.957 75.5677C815.957 77.0845 816.21 78.6014 816.715 80.1182L848.948 158.425L882.318 80.1182C882.95 78.475 883.266 76.9581 883.266 75.5677C883.266 74.0509 882.571 72.4708 881.181 70.8276C879.917 69.058 877.894 68.1731 875.113 68.1731H873.407V66.2771H913.982V68.1731ZM918.639 197.104C921.926 197.104 924.707 195.966 926.982 193.691C929.384 191.289 930.648 188.445 930.774 185.159V79.5494C930.395 75.1253 928.309 71.8388 924.517 69.69C922.621 68.6787 920.662 68.1731 918.639 68.1731H916.175V66.2771H988.793C992.711 66.2771 997.009 65.8979 1001.69 65.1395C1006.36 64.3811 1009.65 63.6226 1011.55 62.8642V96.0449H1009.65V93.7697C1009.65 88.0816 1007.94 83.5311 1004.53 80.1182C1001.24 76.5789 996.756 74.6829 991.068 74.4301H959.215V129.605H984.243C988.919 129.478 992.775 127.898 995.808 124.865C998.842 121.705 1000.36 117.849 1000.36 113.299V111.592H1002.25V155.391H1000.36V153.874C1000.36 147.554 997.831 142.877 992.775 139.844C990.247 138.453 987.466 137.695 984.432 137.568H959.215V190.847H984.053C993.28 190.847 1000.99 188.193 1007.18 182.884C1013.5 177.575 1018.18 170.054 1021.22 160.321H1023.11L1014.39 199H916.175V197.104H918.639ZM1182.73 68.1731C1179.57 68.1731 1176.85 69.3108 1174.58 71.586C1172.3 73.7349 1171.1 76.3893 1170.98 79.5494V177.385C1170.98 185.854 1171.54 192.996 1172.68 198.81L1173.25 201.654H1171.54L1075.79 110.455V185.728C1075.79 188.888 1076.93 191.605 1079.21 193.881C1081.48 196.03 1084.2 197.104 1087.36 197.104H1090.96V199H1033.51V197.104H1036.93C1040.21 197.104 1042.99 196.03 1045.27 193.881C1047.54 191.605 1048.68 188.825 1048.68 185.538V87.1336C1048.68 78.791 1048.11 71.8388 1046.97 66.2771L1046.6 63.433H1048.3L1144.05 154.633V79.739C1143.93 76.4525 1142.72 73.7349 1140.45 71.586C1138.17 69.3108 1135.46 68.1731 1132.3 68.1731H1128.88V66.2771H1186.33V68.1731H1182.73Z"/>
</mask>
<path d="M161.922 225.355C175.068 225.355 185.686 222.764 193.775 217.581L195.103 219.098C184.232 234.14 170.707 242.483 154.527 244.126C151.115 244.505 148.144 244.695 145.616 244.695C143.214 244.695 140.37 244.568 137.084 244.315C133.924 244.189 129.436 243.367 123.622 241.851C117.807 240.334 112.688 238.754 108.264 237.11C103.84 235.594 98.7206 233.508 92.906 230.853C87.0915 228.325 82.2882 226.05 78.4961 224.028C74.704 222.132 70.1535 219.793 64.8446 217.012C59.6621 214.358 55.1116 212.083 51.1931 210.187C47.2746 208.291 43.4826 206.647 39.8169 205.257C29.4518 201.086 18.834 199 7.96337 199V197.104H10.4282C13.7147 197.104 16.4956 195.966 18.7708 193.691C21.1725 191.416 22.4365 188.572 22.5629 185.159V80.1182C22.4365 76.7053 21.1725 73.8613 18.7708 71.586C16.4956 69.3108 13.7147 68.1731 10.4282 68.1731H7.96337V66.2771H65.603L65.4134 68.1731H63.5174C58.7141 68.1731 55.1116 70.1324 52.71 74.0509C51.5723 75.8205 51.0035 77.8429 51.0035 80.1182V190.089C51.0035 194.26 51.8251 197.167 53.4684 198.81C55.1116 200.327 56.9444 201.402 58.9669 202.034C106.494 217.581 140.813 225.355 161.922 225.355ZM230.702 68.1731H227.479C224.825 68.1731 222.486 69.058 220.464 70.8276C218.568 72.4708 217.62 74.5565 217.62 77.0845V151.03C217.62 166.578 212.753 178.902 203.02 188.003C193.287 197.104 179.952 201.654 163.014 201.654C143.042 201.654 127.747 197.23 117.129 188.382C106.512 179.408 101.203 167.02 101.203 151.22V77.6533C101.203 74.8725 100.191 72.5972 98.169 70.8276C96.273 69.058 93.9345 68.1731 91.1537 68.1731H88.12V66.2771H142.726V68.1731H139.692C136.911 68.1731 134.573 69.058 132.677 70.8276C130.781 72.4708 129.77 74.6197 129.643 77.2741V149.703C129.643 163.102 132.93 173.719 139.503 181.556C146.076 189.393 155.113 193.312 166.616 193.312C178.119 193.312 187.22 189.646 193.919 182.315C200.618 174.857 204.031 164.808 204.158 152.168V77.2741C204.158 74.6197 203.147 72.4708 201.124 70.8276C199.228 69.058 196.89 68.1731 194.109 68.1731H191.075V66.2771H230.702V68.1731ZM317.975 197.104C320.629 197.104 322.778 195.84 324.422 193.312C325.18 191.921 325.559 190.594 325.559 189.33C325.559 188.066 325.18 186.802 324.422 185.538L297.877 144.204L270.005 185.349C267.856 189.141 268.488 192.427 271.901 195.208C273.418 196.472 274.998 197.104 276.641 197.104H279.106V199H232.274V197.104H234.928C242.007 197.104 248.264 193.565 253.699 186.486L291.051 133.587L255.974 79.3598C253.826 76.1997 251.045 73.5453 247.632 71.3964C244.219 69.2476 240.617 68.1731 236.824 68.1731H234.17V66.2771H298.635V68.1731H296.171C293.516 68.1731 291.367 69.4372 289.724 71.9652C288.966 73.3556 288.586 74.7461 288.586 76.1365C288.586 77.4005 288.902 78.6014 289.534 79.739L313.235 116.333L336.556 79.9286C337.315 78.6646 337.694 77.4005 337.694 76.1365C337.694 74.7461 337.251 73.4189 336.367 72.1548C334.723 69.5004 332.575 68.1731 329.92 68.1731H327.455V66.2771H374.098V68.1731H371.443C367.651 68.1731 364.112 69.2476 360.826 71.3964C357.539 73.4189 354.758 76.0101 352.483 79.1702L320.25 127.14L358.361 186.107C360.51 189.267 363.29 191.921 366.703 194.07C370.243 196.093 373.845 197.104 377.511 197.104H380.165V199H315.51V197.104H317.975ZM385.193 197.104C388.479 197.104 391.26 195.966 393.535 193.691C395.937 191.289 397.201 188.445 397.327 185.159V79.5494C396.948 75.1253 394.862 71.8388 391.07 69.69C389.174 68.6787 387.215 68.1731 385.193 68.1731H382.728V66.2771H455.346C459.265 66.2771 463.562 65.8979 468.239 65.1395C472.916 64.3811 476.203 63.6226 478.099 62.8642V96.0449H476.203V93.7697C476.203 88.0816 474.496 83.5311 471.083 80.1182C467.797 76.5789 463.31 74.6829 457.621 74.4301H425.768V129.605H450.796C455.473 129.478 459.328 127.898 462.362 124.865C465.395 121.705 466.912 117.849 466.912 113.299V111.592H468.808V155.391H466.912V153.874C466.912 147.554 464.384 142.877 459.328 139.844C456.8 138.453 454.019 137.695 450.985 137.568H425.768V190.847H450.606C459.833 190.847 467.544 188.193 473.738 182.884C480.058 177.575 484.735 170.054 487.769 160.321H489.665L480.943 199H382.728V197.104H385.193ZM592.8 197.104C596.087 197.104 598.931 195.966 601.332 193.691C603.734 191.416 604.998 188.635 605.125 185.349V136.999H545.399V185.728C545.399 200.896 541.544 212.968 533.833 221.942C527.766 229.021 519.044 232.56 507.668 232.56C504.002 232.56 500.021 232.118 495.723 231.233L495.344 229.337C504.698 225.418 510.702 219.604 513.356 211.893C515.758 205.32 516.959 196.598 516.959 185.728V79.9286C516.832 76.6421 515.568 73.8613 513.167 71.586C510.891 69.3108 508.11 68.1731 504.824 68.1731H502.359V66.2771H559.999V68.1731H557.534C552.983 68.1731 549.571 70.0692 547.295 73.8613C546.158 75.6309 545.526 77.6533 545.399 79.9286V128.846H605.125V83.3415C605.125 68.5523 609.738 56.7969 618.966 48.0751C626.297 40.8701 635.524 37.2677 646.648 37.2677C649.176 37.2677 651.83 37.4573 654.611 37.8365L654.99 39.7325C645.763 43.019 639.759 48.8335 636.978 57.1761C634.703 64.0018 633.502 72.7236 633.376 83.3415V185.159C633.502 189.709 635.524 193.122 639.443 195.398C641.339 196.535 643.425 197.104 645.7 197.104H647.975V199H590.525V197.104H592.8ZM796.877 197.104H798.583V199H738.099V197.104H739.806C742.587 197.104 744.609 196.282 745.873 194.639C747.264 192.869 747.959 191.226 747.959 189.709C747.959 188.193 747.643 186.676 747.011 185.159L737.72 161.838H693.353L683.493 185.159C682.861 186.802 682.545 188.382 682.545 189.899C682.545 191.289 683.177 192.869 684.441 194.639C685.832 196.282 687.981 197.104 690.888 197.104H692.405V199H651.829V197.104H653.536C656.443 197.104 659.35 196.219 662.258 194.45C665.165 192.68 667.567 190.025 669.463 186.486L713.261 87.3232C719.202 74.8093 722.362 66.5299 722.741 62.485H724.448L780.76 186.107C782.656 189.773 785.058 192.553 787.965 194.45C790.872 196.219 793.843 197.104 796.877 197.104ZM696.576 153.874H734.497L716.105 107.232L696.576 153.874ZM913.982 68.1731H912.276C909.369 68.1731 906.461 69.058 903.554 70.8276C900.647 72.5972 898.245 75.2517 896.349 78.791L851.413 177.954C845.598 190.468 842.502 198.747 842.122 202.792H840.416L782.966 78.9806C781.07 75.4413 778.668 72.7868 775.761 71.0172C772.854 69.1212 769.883 68.1731 766.849 68.1731H765.333V66.2771H825.627V68.1731H824.11C821.329 68.1731 819.243 69.058 817.853 70.8276C816.589 72.4708 815.957 74.0509 815.957 75.5677C815.957 77.0845 816.21 78.6014 816.715 80.1182L848.948 158.425L882.318 80.1182C882.95 78.475 883.266 76.9581 883.266 75.5677C883.266 74.0509 882.571 72.4708 881.181 70.8276C879.917 69.058 877.894 68.1731 875.113 68.1731H873.407V66.2771H913.982V68.1731ZM918.639 197.104C921.926 197.104 924.707 195.966 926.982 193.691C929.384 191.289 930.648 188.445 930.774 185.159V79.5494C930.395 75.1253 928.309 71.8388 924.517 69.69C922.621 68.6787 920.662 68.1731 918.639 68.1731H916.175V66.2771H988.793C992.711 66.2771 997.009 65.8979 1001.69 65.1395C1006.36 64.3811 1009.65 63.6226 1011.55 62.8642V96.0449H1009.65V93.7697C1009.65 88.0816 1007.94 83.5311 1004.53 80.1182C1001.24 76.5789 996.756 74.6829 991.068 74.4301H959.215V129.605H984.243C988.919 129.478 992.775 127.898 995.808 124.865C998.842 121.705 1000.36 117.849 1000.36 113.299V111.592H1002.25V155.391H1000.36V153.874C1000.36 147.554 997.831 142.877 992.775 139.844C990.247 138.453 987.466 137.695 984.432 137.568H959.215V190.847H984.053C993.28 190.847 1000.99 188.193 1007.18 182.884C1013.5 177.575 1018.18 170.054 1021.22 160.321H1023.11L1014.39 199H916.175V197.104H918.639ZM1182.73 68.1731C1179.57 68.1731 1176.85 69.3108 1174.58 71.586C1172.3 73.7349 1171.1 76.3893 1170.98 79.5494V177.385C1170.98 185.854 1171.54 192.996 1172.68 198.81L1173.25 201.654H1171.54L1075.79 110.455V185.728C1075.79 188.888 1076.93 191.605 1079.21 193.881C1081.48 196.03 1084.2 197.104 1087.36 197.104H1090.96V199H1033.51V197.104H1036.93C1040.21 197.104 1042.99 196.03 1045.27 193.881C1047.54 191.605 1048.68 188.825 1048.68 185.538V87.1336C1048.68 78.791 1048.11 71.8388 1046.97 66.2771L1046.6 63.433H1048.3L1144.05 154.633V79.739C1143.93 76.4525 1142.72 73.7349 1140.45 71.586C1138.17 69.3108 1135.46 68.1731 1132.3 68.1731H1128.88V66.2771H1186.33V68.1731H1182.73Z" fill="white" fill-opacity="0.17"/>
<path d="M193.775 217.581L194.542 216.911L193.964 216.251L193.226 216.724L193.775 217.581ZM195.103 219.098L195.928 219.694L196.402 219.038L195.869 218.428L195.103 219.098ZM154.527 244.126L154.425 243.113L154.415 243.114L154.527 244.126ZM137.084 244.315L137.162 243.3L137.143 243.299L137.124 243.298L137.084 244.315ZM123.622 241.851L123.365 242.836L123.622 241.851ZM108.264 237.11L108.618 236.156L108.606 236.152L108.594 236.148L108.264 237.11ZM92.906 230.854L93.3288 229.927L93.3204 229.924L93.3119 229.92L92.906 230.854ZM78.4961 224.028L78.9752 223.13L78.9633 223.123L78.9514 223.117L78.4961 224.028ZM64.8446 217.012L65.317 216.111L65.3087 216.106L64.8446 217.012ZM51.1931 210.187L50.7497 211.103L51.1931 210.187ZM39.8169 205.257L39.4368 206.201L39.4463 206.205L39.4559 206.209L39.8169 205.257ZM7.96337 199H6.94544V200.018H7.96337V199ZM7.96337 197.104V196.086H6.94544V197.104H7.96337ZM18.7708 193.691L18.0707 192.952L18.0607 192.962L18.051 192.971L18.7708 193.691ZM22.5629 185.159L23.5801 185.197L23.5808 185.178V185.159H22.5629ZM22.5629 80.1182H23.5808V80.0993L23.5801 80.0805L22.5629 80.1182ZM18.7708 71.586L18.051 72.3058L18.0607 72.3155L18.0707 72.325L18.7708 71.586ZM7.96337 68.1731H6.94544V69.1911H7.96337V68.1731ZM7.96337 66.2771V65.2592H6.94544V66.2771H7.96337ZM65.603 66.2771L66.6159 66.3784L66.7278 65.2592H65.603V66.2771ZM65.4134 68.1731V69.1911H66.3347L66.4263 68.2744L65.4134 68.1731ZM52.71 74.0509L53.5662 74.6013L53.5721 74.5921L53.5778 74.5828L52.71 74.0509ZM53.4684 198.81L52.7486 199.53L52.763 199.545L52.7779 199.558L53.4684 198.81ZM58.9669 202.034L59.2834 201.066L59.2705 201.062L58.9669 202.034ZM161.922 225.355V226.373C175.193 226.373 186.021 223.758 194.325 218.438L193.775 217.581L193.226 216.724C185.35 221.77 174.943 224.337 161.922 224.337V225.355ZM193.775 217.581L193.009 218.252L194.337 219.768L195.103 219.098L195.869 218.428L194.542 216.911L193.775 217.581ZM195.103 219.098L194.278 218.502C183.551 233.345 170.273 241.503 154.425 243.113L154.527 244.126L154.63 245.139C171.141 243.462 184.913 234.935 195.928 219.694L195.103 219.098ZM154.527 244.126L154.415 243.114C151.027 243.49 148.096 243.677 145.616 243.677V244.695V245.713C148.192 245.713 151.202 245.519 154.64 245.137L154.527 244.126ZM145.616 244.695V243.677C143.248 243.677 140.431 243.552 137.162 243.3L137.084 244.315L137.006 245.33C140.309 245.584 143.181 245.713 145.616 245.713V244.695ZM137.084 244.315L137.124 243.298C134.076 243.176 129.674 242.377 123.879 240.866L123.622 241.851L123.365 242.836C129.199 244.357 133.771 245.202 137.043 245.333L137.084 244.315ZM123.622 241.851L123.879 240.866C118.089 239.355 113.003 237.785 108.618 236.156L108.264 237.11L107.91 238.065C112.373 239.722 117.526 241.312 123.365 242.836L123.622 241.851ZM108.264 237.11L108.594 236.148C104.21 234.645 99.1232 232.573 93.3288 229.927L92.906 230.854L92.4833 231.779C98.3179 234.443 103.469 236.543 107.934 238.073L108.264 237.11ZM92.906 230.854L93.3119 229.92C87.5118 227.398 82.735 225.135 78.9752 223.13L78.4961 224.028L78.0171 224.926C81.8414 226.966 86.6713 229.253 92.5002 231.787L92.906 230.854ZM78.4961 224.028L78.9514 223.117C75.1668 221.225 70.6223 218.89 65.3169 216.111L64.8446 217.012L64.3723 217.914C69.6848 220.697 74.2413 223.038 78.0409 224.938L78.4961 224.028ZM64.8446 217.012L65.3087 216.106C60.1214 213.45 55.5638 211.171 51.6365 209.27L51.1931 210.187L50.7497 211.103C54.6594 212.995 59.2028 215.266 64.3806 217.918L64.8446 217.012ZM51.1931 210.187L51.6365 209.27C47.694 207.363 43.8744 205.707 40.1779 204.305L39.8169 205.257L39.4559 206.209C43.0907 207.587 46.8553 209.219 50.7497 211.103L51.1931 210.187ZM39.8169 205.257L40.1969 204.313C29.7145 200.094 18.9679 197.982 7.96337 197.982V199V200.018C18.7001 200.018 29.1892 202.077 39.4368 206.201L39.8169 205.257ZM7.96337 199H8.98131V197.104H7.96337H6.94544V199H7.96337ZM7.96337 197.104V198.122H10.4282V197.104V196.086H7.96337V197.104ZM10.4282 197.104V198.122C13.9782 198.122 17.0199 196.882 19.4906 194.411L18.7708 193.691L18.051 192.971C15.9712 195.051 13.4512 196.086 10.4282 196.086V197.104ZM18.7708 193.691L19.4709 194.43C22.0728 191.965 23.4442 188.866 23.5801 185.197L22.5629 185.159L21.5457 185.121C21.4288 188.277 20.2721 190.867 18.0707 192.952L18.7708 193.691ZM22.5629 185.159H23.5808V80.1182H22.5629H21.545V185.159H22.5629ZM22.5629 80.1182L23.5801 80.0805C23.4442 76.411 22.0728 73.312 19.4709 70.847L18.7708 71.586L18.0707 72.325C20.2721 74.4105 21.4288 76.9997 21.5457 80.1559L22.5629 80.1182ZM18.7708 71.586L19.4906 70.8662C17.0199 68.3955 13.9782 67.1552 10.4282 67.1552V68.1731V69.1911C13.4512 69.1911 15.9712 70.226 18.051 72.3058L18.7708 71.586ZM10.4282 68.1731V67.1552H7.96337V68.1731V69.1911H10.4282V68.1731ZM7.96337 68.1731H8.98131V66.2771H7.96337H6.94544V68.1731H7.96337ZM7.96337 66.2771V67.295H65.603V66.2771V65.2592H7.96337V66.2771ZM65.603 66.2771L64.5902 66.1758L64.4006 68.0718L65.4134 68.1731L66.4263 68.2744L66.6159 66.3784L65.603 66.2771ZM65.4134 68.1731V67.1552H63.5174V68.1731V69.1911H65.4134V68.1731ZM63.5174 68.1731V67.1552C58.3794 67.1552 54.4387 69.2823 51.8421 73.5189L52.71 74.0509L53.5778 74.5828C55.7845 70.9825 59.0488 69.1911 63.5174 69.1911V68.1731ZM52.71 74.0509L51.8537 73.5004C50.6019 75.4477 49.9856 77.6643 49.9856 80.1182H51.0035H52.0215C52.0215 78.0216 52.5428 76.1934 53.5662 74.6013L52.71 74.0509ZM51.0035 80.1182H49.9856V190.089H51.0035H52.0215V80.1182H51.0035ZM51.0035 190.089H49.9856C49.9856 194.334 50.8101 197.592 52.7486 199.53L53.4684 198.81L54.1882 198.091C52.8401 196.743 52.0215 194.186 52.0215 190.089H51.0035ZM53.4684 198.81L52.7779 199.558C54.5257 201.172 56.489 202.326 58.6633 203.005L58.9669 202.034L59.2705 201.062C57.3999 200.478 55.6975 199.483 54.1588 198.062L53.4684 198.81ZM58.9669 202.034L58.6504 203.001C106.178 218.549 140.634 226.373 161.922 226.373V225.355V224.337C140.991 224.337 106.81 216.614 59.2834 201.066L58.9669 202.034ZM230.702 68.1731V69.1911H231.72V68.1731H230.702ZM220.464 70.8276L221.13 71.5968L221.134 71.5937L220.464 70.8276ZM203.02 188.003L203.715 188.746L203.02 188.003ZM117.129 188.382L116.472 189.16L116.478 189.164L117.129 188.382ZM98.169 70.8276L97.4745 71.5718L97.4864 71.5829L97.4987 71.5937L98.169 70.8276ZM88.12 68.1731H87.1021V69.1911H88.12V68.1731ZM88.12 66.2771V65.2592H87.1021V66.2771H88.12ZM142.726 66.2771H143.744V65.2592H142.726V66.2771ZM142.726 68.1731V69.1911H143.744V68.1731H142.726ZM132.677 70.8276L133.344 71.5968L133.358 71.5845L133.372 71.5718L132.677 70.8276ZM129.643 77.2741L128.627 77.2257L128.625 77.2499V77.2741H129.643ZM139.503 181.556L140.283 180.902L139.503 181.556ZM193.919 182.315L194.671 183.002L194.676 182.995L193.919 182.315ZM204.158 152.168L205.176 152.178V152.168H204.158ZM201.124 70.8276L200.43 71.5718L200.455 71.5956L200.482 71.6176L201.124 70.8276ZM191.075 68.1731H190.057V69.1911H191.075V68.1731ZM191.075 66.2771V65.2592H190.057V66.2771H191.075ZM230.702 66.2771H231.72V65.2592H230.702V66.2771ZM230.702 68.1731V67.1552H227.479V68.1731V69.1911H230.702V68.1731ZM227.479 68.1731V67.1552C224.575 67.1552 221.999 68.1317 219.793 70.0615L220.464 70.8276L221.134 71.5937C222.973 69.9842 225.075 69.1911 227.479 69.1911V68.1731ZM220.464 70.8276L219.797 70.0583C217.676 71.8966 216.602 74.2638 216.602 77.0845H217.62H218.638C218.638 74.8491 219.459 73.045 221.13 71.5968L220.464 70.8276ZM217.62 77.0845H216.602V151.03H217.62H218.638V77.0845H217.62ZM217.62 151.03H216.602C216.602 166.347 211.817 178.383 202.325 187.259L203.02 188.003L203.715 188.746C213.689 179.421 218.638 166.808 218.638 151.03H217.62ZM203.02 188.003L202.325 187.259C192.828 196.14 179.766 200.637 163.014 200.637V201.654V202.672C180.137 202.672 193.747 198.068 203.715 188.746L203.02 188.003ZM163.014 201.654V200.637C143.177 200.637 128.15 196.241 117.781 187.6L117.129 188.382L116.478 189.164C127.345 198.22 142.907 202.672 163.014 202.672V201.654ZM117.129 188.382L117.787 187.605C107.43 178.851 102.221 166.766 102.221 151.22H101.203H100.185C100.185 167.274 105.593 179.964 116.472 189.16L117.129 188.382ZM101.203 151.22H102.221V77.6533H101.203H100.185V151.22H101.203ZM101.203 77.6533H102.221C102.221 74.5906 101.091 72.032 98.8393 70.0615L98.169 70.8276L97.4987 71.5937C99.2916 73.1625 100.185 75.1544 100.185 77.6533H101.203ZM98.169 70.8276L98.8636 70.0834C96.7647 68.1244 94.172 67.1552 91.1537 67.1552V68.1731V69.1911C93.6971 69.1911 95.7813 69.9915 97.4745 71.5718L98.169 70.8276ZM91.1537 68.1731V67.1552H88.12V68.1731V69.1911H91.1537V68.1731ZM88.12 68.1731H89.1379V66.2771H88.12H87.1021V68.1731H88.12ZM88.12 66.2771V67.295H142.726V66.2771V65.2592H88.12V66.2771ZM142.726 66.2771H141.708V68.1731H142.726H143.744V66.2771H142.726ZM142.726 68.1731V67.1552H139.692V68.1731V69.1911H142.726V68.1731ZM139.692 68.1731V67.1552C136.674 67.1552 134.081 68.1244 131.982 70.0834L132.677 70.8276L133.372 71.5718C135.065 69.9915 137.149 69.1911 139.692 69.1911V68.1731ZM132.677 70.8276L132.01 70.0583C129.89 71.8956 128.765 74.3116 128.627 77.2257L129.643 77.2741L130.66 77.3226C130.774 74.9277 131.671 73.046 133.344 71.5968L132.677 70.8276ZM129.643 77.2741H128.625V149.703H129.643H130.661V77.2741H129.643ZM129.643 149.703H128.625C128.625 163.266 131.954 174.14 138.723 182.211L139.503 181.556L140.283 180.902C133.906 173.299 130.661 162.938 130.661 149.703H129.643ZM139.503 181.556L138.723 182.211C145.515 190.309 154.855 194.33 166.616 194.33V193.312V192.294C155.372 192.294 146.637 188.478 140.283 180.902L139.503 181.556ZM166.616 193.312V194.33C178.355 194.33 187.747 190.578 194.671 183.001L193.919 182.315L193.168 181.628C186.692 188.714 177.883 192.294 166.616 192.294V193.312ZM193.919 182.315L194.676 182.995C201.581 175.309 205.047 164.999 205.176 152.178L204.158 152.168L203.14 152.158C203.015 164.617 199.656 174.405 193.162 181.635L193.919 182.315ZM204.158 152.168H205.176V77.2741H204.158H203.14V152.168H204.158ZM204.158 77.2741H205.176C205.176 74.3198 204.031 71.8782 201.766 70.0376L201.124 70.8276L200.482 71.6176C202.262 73.0634 203.14 74.9196 203.14 77.2741H204.158ZM201.124 70.8276L201.819 70.0834C199.72 68.1244 197.127 67.1552 194.109 67.1552V68.1731V69.1911C196.652 69.1911 198.736 69.9915 200.43 71.5718L201.124 70.8276ZM194.109 68.1731V67.1552H191.075V68.1731V69.1911H194.109V68.1731ZM191.075 68.1731H192.093V66.2771H191.075H190.057V68.1731H191.075ZM191.075 66.2771V67.295H230.702V66.2771V65.2592H191.075V66.2771ZM230.702 66.2771H229.684V68.1731H230.702H231.72V66.2771H230.702ZM324.422 193.312L325.275 193.867L325.296 193.834L325.315 193.799L324.422 193.312ZM324.422 185.538L325.294 185.014L325.286 185.001L325.278 184.988L324.422 185.538ZM297.877 144.204L298.734 143.654L297.9 142.356L297.034 143.633L297.877 144.204ZM270.005 185.348L269.162 184.778L269.14 184.811L269.12 184.847L270.005 185.348ZM271.901 195.208L272.553 194.426L272.544 194.419L271.901 195.208ZM279.106 197.104H280.124V196.086H279.106V197.104ZM279.106 199V200.018H280.124V199H279.106ZM232.274 199H231.256V200.018H232.274V199ZM232.274 197.104V196.086H231.256V197.104H232.274ZM253.699 186.486L254.507 187.106L254.519 187.09L254.531 187.073L253.699 186.486ZM291.051 133.587L291.883 134.174L292.28 133.612L291.906 133.034L291.051 133.587ZM255.974 79.3598L256.829 78.8069L256.823 78.7971L256.816 78.7874L255.974 79.3598ZM247.632 71.3964L248.174 70.535L247.632 71.3964ZM234.17 68.1731H233.152V69.1911H234.17V68.1731ZM234.17 66.2771V65.2592H233.152V66.2771H234.17ZM298.635 66.2771H299.653V65.2592H298.635V66.2771ZM298.635 68.1731V69.1911H299.653V68.1731H298.635ZM289.724 71.9652L288.871 71.4105L288.849 71.4434L288.83 71.4778L289.724 71.9652ZM289.534 79.739L288.645 80.2333L288.661 80.2635L288.68 80.2924L289.534 79.739ZM313.235 116.333L312.381 116.886L313.24 118.212L314.092 116.882L313.235 116.333ZM336.556 79.9286L337.413 80.4777L337.421 80.4651L337.429 80.4523L336.556 79.9286ZM336.367 72.1548L335.501 72.6906L335.516 72.715L335.533 72.7386L336.367 72.1548ZM327.455 68.1731H326.437V69.1911H327.455V68.1731ZM327.455 66.2771V65.2592H326.437V66.2771H327.455ZM374.098 66.2771H375.116V65.2592H374.098V66.2771ZM374.098 68.1731V69.1911H375.116V68.1731H374.098ZM360.826 71.3964L361.359 72.2633L361.371 72.256L361.383 72.2484L360.826 71.3964ZM352.483 79.1702L351.657 78.5754L351.647 78.5888L351.638 78.6024L352.483 79.1702ZM320.25 127.14L319.405 126.572L319.031 127.129L319.395 127.693L320.25 127.14ZM358.361 186.107L357.506 186.659L357.512 186.669L357.519 186.679L358.361 186.107ZM366.703 194.07L366.161 194.932L366.179 194.943L366.198 194.954L366.703 194.07ZM380.165 197.104H381.183V196.086H380.165V197.104ZM380.165 199V200.018H381.183V199H380.165ZM315.51 199H314.492V200.018H315.51V199ZM315.51 197.104V196.086H314.492V197.104H315.51ZM317.975 197.104V198.122C321.026 198.122 323.474 196.637 325.275 193.867L324.422 193.312L323.568 192.757C322.083 195.042 320.233 196.086 317.975 196.086V197.104ZM324.422 193.312L325.315 193.799C326.135 192.297 326.577 190.802 326.577 189.33H325.559H324.541C324.541 190.386 324.225 191.546 323.528 192.824L324.422 193.312ZM325.559 189.33H326.577C326.577 187.853 326.132 186.41 325.294 185.014L324.422 185.538L323.549 186.062C324.228 187.194 324.541 188.279 324.541 189.33H325.559ZM324.422 185.538L325.278 184.988L298.734 143.654L297.877 144.204L297.02 144.754L323.565 186.088L324.422 185.538ZM297.877 144.204L297.034 143.633L269.162 184.778L270.005 185.348L270.848 185.919L298.72 144.775L297.877 144.204ZM270.005 185.348L269.12 184.847C267.963 186.888 267.494 188.905 267.868 190.85C268.242 192.793 269.426 194.504 271.258 195.997L271.901 195.208L272.544 194.419C270.964 193.131 270.125 191.808 269.867 190.465C269.609 189.124 269.899 187.601 270.891 185.85L270.005 185.348ZM271.901 195.208L271.25 195.99C272.911 197.374 274.714 198.122 276.641 198.122V197.104V196.086C275.282 196.086 273.925 195.57 272.553 194.426L271.901 195.208ZM276.641 197.104V198.122H279.106V197.104V196.086H276.641V197.104ZM279.106 197.104H278.088V199H279.106H280.124V197.104H279.106ZM279.106 199V197.982H232.274V199V200.018H279.106V199ZM232.274 199H233.292V197.104H232.274H231.256V199H232.274ZM232.274 197.104V198.122H234.928V197.104V196.086H232.274V197.104ZM234.928 197.104V198.122C242.404 198.122 248.934 194.363 254.507 187.106L253.699 186.486L252.892 185.866C247.594 192.766 241.61 196.086 234.928 196.086V197.104ZM253.699 186.486L254.531 187.073L291.883 134.174L291.051 133.587L290.22 132.999L252.868 185.899L253.699 186.486ZM291.051 133.587L291.906 133.034L256.829 78.8069L255.974 79.3598L255.12 79.9127L290.197 134.139L291.051 133.587ZM255.974 79.3598L256.816 78.7874C254.584 75.505 251.699 72.7543 248.174 70.535L247.632 71.3964L247.09 72.2578C250.39 74.3362 253.067 76.8944 255.133 79.9322L255.974 79.3598ZM247.632 71.3964L248.174 70.535C244.61 68.2907 240.821 67.1552 236.824 67.1552V68.1731V69.1911C240.412 69.1911 243.828 70.2044 247.09 72.2578L247.632 71.3964ZM236.824 68.1731V67.1552H234.17V68.1731V69.1911H236.824V68.1731ZM234.17 68.1731H235.188V66.2771H234.17H233.152V68.1731H234.17ZM234.17 66.2771V67.295H298.635V66.2771V65.2592H234.17V66.2771ZM298.635 66.2771H297.617V68.1731H298.635H299.653V66.2771H298.635ZM298.635 68.1731V67.1552H296.171V68.1731V69.1911H298.635V68.1731ZM296.171 68.1731V67.1552C293.12 67.1552 290.672 68.6396 288.871 71.4105L289.724 71.9652L290.577 72.52C292.063 70.2347 293.912 69.1911 296.171 69.1911V68.1731ZM289.724 71.9652L288.83 71.4778C288.002 72.9967 287.568 74.5533 287.568 76.1365H288.586H289.604C289.604 74.9389 289.929 73.7146 290.618 72.4527L289.724 71.9652ZM288.586 76.1365H287.568C287.568 77.5788 287.931 78.9492 288.645 80.2333L289.534 79.739L290.424 79.2446C289.874 78.2536 289.604 77.2223 289.604 76.1365H288.586ZM289.534 79.739L288.68 80.2924L312.381 116.886L313.235 116.333L314.089 115.779L290.389 79.1856L289.534 79.739ZM313.235 116.333L314.092 116.882L337.413 80.4777L336.556 79.9286L335.699 79.3795L312.378 115.783L313.235 116.333ZM336.556 79.9286L337.429 80.4523C338.266 79.0567 338.712 77.6138 338.712 76.1365H337.694H336.676C336.676 77.1873 336.363 78.2724 335.683 79.4049L336.556 79.9286ZM337.694 76.1365H338.712C338.712 74.5145 338.191 72.9866 337.201 71.5711L336.367 72.1548L335.533 72.7386C336.311 73.8511 336.676 74.9776 336.676 76.1365H337.694ZM336.367 72.1548L337.232 71.619C335.442 68.7267 332.994 67.1552 329.92 67.1552V68.1731V69.1911C332.155 69.1911 334.005 70.274 335.501 72.6906L336.367 72.1548ZM329.92 68.1731V67.1552H327.455V68.1731V69.1911H329.92V68.1731ZM327.455 68.1731H328.473V66.2771H327.455H326.437V68.1731H327.455ZM327.455 66.2771V67.295H374.098V66.2771V65.2592H327.455V66.2771ZM374.098 66.2771H373.08V68.1731H374.098H375.116V66.2771H374.098ZM374.098 68.1731V67.1552H371.443V68.1731V69.1911H374.098V68.1731ZM371.443 68.1731V67.1552C367.446 67.1552 363.714 68.2914 360.269 70.5444L360.826 71.3964L361.383 72.2484C364.51 70.2038 367.856 69.1911 371.443 69.1911V68.1731ZM360.826 71.3964L360.292 70.5295C356.89 72.6231 354.01 75.3072 351.657 78.5754L352.483 79.1702L353.309 79.765C355.506 76.713 358.188 74.2146 361.359 72.2633L360.826 71.3964ZM352.483 79.1702L351.638 78.6024L319.405 126.572L320.25 127.14L321.095 127.708L353.328 79.7379L352.483 79.1702ZM320.25 127.14L319.395 127.693L357.506 186.659L358.361 186.107L359.216 185.554L321.105 126.587L320.25 127.14ZM358.361 186.107L357.519 186.679C359.751 189.962 362.636 192.712 366.161 194.932L366.703 194.07L367.246 193.209C363.945 191.131 361.268 188.572 359.202 185.535L358.361 186.107ZM366.703 194.07L366.198 194.954C369.874 197.054 373.649 198.122 377.511 198.122V197.104V196.086C374.041 196.086 370.611 195.131 367.208 193.186L366.703 194.07ZM377.511 197.104V198.122H380.165V197.104V196.086H377.511V197.104ZM380.165 197.104H379.147V199H380.165H381.183V197.104H380.165ZM380.165 199V197.982H315.51V199V200.018H380.165V199ZM315.51 199H316.528V197.104H315.51H314.492V199H315.51ZM315.51 197.104V198.122H317.975V197.104V196.086H315.51V197.104ZM393.535 193.691L394.255 194.411L393.535 193.691ZM397.327 185.159L398.345 185.198L398.345 185.178V185.159H397.327ZM397.327 79.5494H398.345V79.5058L398.342 79.4624L397.327 79.5494ZM391.07 69.69L391.572 68.8043L391.561 68.7979L391.549 68.7918L391.07 69.69ZM382.728 68.1731H381.71V69.1911H382.728V68.1731ZM382.728 66.2771V65.2592H381.71V66.2771H382.728ZM478.099 62.8642H479.117V61.3607L477.721 61.9191L478.099 62.8642ZM478.099 96.0449V97.0629H479.117V96.0449H478.099ZM476.203 96.0449H475.185V97.0629H476.203V96.0449ZM471.083 80.1182L470.337 80.8109L470.35 80.8247L470.364 80.838L471.083 80.1182ZM457.621 74.4301L457.667 73.4131L457.644 73.4121H457.621V74.4301ZM425.768 74.4301V73.4121H424.75V74.4301H425.768ZM425.768 129.605H424.75V130.623H425.768V129.605ZM450.796 129.605V130.623H450.809L450.823 130.622L450.796 129.605ZM462.362 124.865L463.081 125.585L463.089 125.577L463.096 125.57L462.362 124.865ZM466.912 111.592V110.575H465.894V111.592H466.912ZM468.808 111.592H469.826V110.575H468.808V111.592ZM468.808 155.391V156.409H469.826V155.391H468.808ZM466.912 155.391H465.894V156.409H466.912V155.391ZM459.328 139.844L459.852 138.971L459.835 138.961L459.818 138.952L459.328 139.844ZM450.985 137.568L451.028 136.551L451.007 136.55H450.985V137.568ZM425.768 137.568V136.55H424.75V137.568H425.768ZM425.768 190.847H424.75V191.865H425.768V190.847ZM473.738 182.884L473.083 182.104L473.075 182.111L473.738 182.884ZM487.768 160.321V159.303H487.02L486.797 160.018L487.768 160.321ZM489.665 160.321L490.658 160.545L490.938 159.303H489.665V160.321ZM480.943 199V200.018H481.757L481.936 199.224L480.943 199ZM382.728 199H381.71V200.018H382.728V199ZM382.728 197.104V196.086H381.71V197.104H382.728ZM385.193 197.104V198.122C388.743 198.122 391.784 196.882 394.255 194.411L393.535 193.691L392.815 192.971C390.736 195.051 388.216 196.086 385.193 196.086V197.104ZM393.535 193.691L394.255 194.411C396.831 191.834 398.208 188.75 398.345 185.198L397.327 185.159L396.31 185.12C396.194 188.141 395.042 190.744 392.815 192.971L393.535 193.691ZM397.327 185.159H398.345V79.5494H397.327H396.309V185.159H397.327ZM397.327 79.5494L398.342 79.4624C397.934 74.7114 395.663 71.1224 391.572 68.8043L391.07 69.69L390.569 70.5756C394.062 72.5553 395.962 75.5391 396.313 79.6363L397.327 79.5494ZM391.07 69.69L391.549 68.7918C389.515 67.707 387.393 67.1552 385.193 67.1552V68.1731V69.1911C387.038 69.1911 388.833 69.6505 390.591 70.5881L391.07 69.69ZM385.193 68.1731V67.1552H382.728V68.1731V69.1911H385.193V68.1731ZM382.728 68.1731H383.746V66.2771H382.728H381.71V68.1731H382.728ZM382.728 66.2771V67.295H455.346V66.2771V65.2592H382.728V66.2771ZM455.346 66.2771V67.295C459.329 67.295 463.682 66.9097 468.402 66.1443L468.239 65.1395L468.076 64.1347C463.443 64.8861 459.2 65.2592 455.346 65.2592V66.2771ZM468.239 65.1395L468.402 66.1443C473.082 65.3854 476.467 64.6133 478.477 63.8093L478.099 62.8642L477.721 61.9191C475.938 62.632 472.75 63.3767 468.076 64.1347L468.239 65.1395ZM478.099 62.8642H477.081V96.0449H478.099H479.117V62.8642H478.099ZM478.099 96.0449V95.027H476.203V96.0449V97.0629H478.099V96.0449ZM476.203 96.0449H477.221V93.7697H476.203H475.185V96.0449H476.203ZM476.203 93.7697H477.221C477.221 87.8635 475.441 83.036 471.803 79.3984L471.083 80.1182L470.364 80.838C473.552 84.0262 475.185 88.2997 475.185 93.7697H476.203ZM471.083 80.1182L471.829 79.4255C468.329 75.6557 463.571 73.6755 457.667 73.4131L457.621 74.4301L457.576 75.447C463.049 75.6902 467.265 77.5022 470.337 80.8109L471.083 80.1182ZM457.621 74.4301V73.4121H425.768V74.4301V75.448H457.621V74.4301ZM425.768 74.4301H424.75V129.605H425.768H426.786V74.4301H425.768ZM425.768 129.605V130.623H450.796V129.605V128.587H425.768V129.605ZM450.796 129.605L450.823 130.622C455.735 130.49 459.846 128.82 463.081 125.585L462.362 124.865L461.642 124.145C458.81 126.977 455.21 128.467 450.768 128.587L450.796 129.605ZM462.362 124.865L463.096 125.57C466.319 122.212 467.93 118.101 467.93 113.299H466.912H465.894C465.894 117.598 464.471 121.197 461.627 124.16L462.362 124.865ZM466.912 113.299H467.93V111.592H466.912H465.894V113.299H466.912ZM466.912 111.592V112.61H468.808V111.592V110.575H466.912V111.592ZM468.808 111.592H467.79V155.391H468.808H469.826V111.592H468.808ZM468.808 155.391V154.373H466.912V155.391V156.409H468.808V155.391ZM466.912 155.391H467.93V153.874H466.912H465.894V155.391H466.912ZM466.912 153.874H467.93C467.93 147.228 465.24 142.204 459.852 138.971L459.328 139.844L458.804 140.716C463.528 143.551 465.894 147.88 465.894 153.874H466.912ZM459.328 139.844L459.818 138.952C457.145 137.481 454.21 136.684 451.028 136.551L450.985 137.568L450.943 138.585C453.828 138.706 456.454 139.425 458.837 140.735L459.328 139.844ZM450.985 137.568V136.55H425.768V137.568V138.586H450.985V137.568ZM425.768 137.568H424.75V190.847H425.768H426.786V137.568H425.768ZM425.768 190.847V191.865H450.606V190.847V189.829H425.768V190.847ZM450.606 190.847V191.865C460.043 191.865 467.998 189.144 474.4 183.657L473.738 182.884L473.075 182.111C467.09 187.241 459.624 189.829 450.606 189.829V190.847ZM473.738 182.884L474.393 183.663C480.893 178.202 485.662 170.499 488.74 160.624L487.768 160.321L486.797 160.018C483.807 169.609 479.223 176.947 473.083 182.104L473.738 182.884ZM487.768 160.321V161.339H489.665V160.321V159.303H487.768V160.321ZM489.665 160.321L488.672 160.097L479.95 198.776L480.943 199L481.936 199.224L490.658 160.545L489.665 160.321ZM480.943 199V197.982H382.728V199V200.018H480.943V199ZM382.728 199H383.746V197.104H382.728H381.71V199H382.728ZM382.728 197.104V198.122H385.193V197.104V196.086H382.728V197.104ZM601.332 193.691L602.033 194.43L601.332 193.691ZM605.125 185.348L606.142 185.388L606.143 185.368V185.348H605.125ZM605.125 136.999H606.143V135.982H605.125V136.999ZM545.399 136.999V135.982H544.381V136.999H545.399ZM533.833 221.942L533.061 221.279L533.061 221.28L533.833 221.942ZM495.723 231.233L494.725 231.432L494.857 232.094L495.518 232.23L495.723 231.233ZM495.344 229.337L494.95 228.398L494.182 228.72L494.346 229.536L495.344 229.337ZM513.356 211.893L512.4 211.544L512.397 211.553L512.394 211.562L513.356 211.893ZM516.959 79.9286H517.977V79.909L517.976 79.8895L516.959 79.9286ZM513.167 71.586L512.447 72.3058L512.456 72.3155L512.466 72.325L513.167 71.586ZM502.359 68.1731H501.341V69.1911H502.359V68.1731ZM502.359 66.2771V65.2592H501.341V66.2771H502.359ZM559.999 66.2771H561.017V65.2592H559.999V66.2771ZM559.999 68.1731V69.1911H561.017V68.1731H559.999ZM547.295 73.8613L548.152 74.4117L548.16 74.3985L548.168 74.385L547.295 73.8613ZM545.399 79.9286L544.383 79.8721L544.381 79.9003V79.9286H545.399ZM545.399 128.846H544.381V129.864H545.399V128.846ZM605.125 128.846V129.864H606.143V128.846H605.125ZM618.966 48.0751L619.665 48.8149L619.672 48.8081L619.679 48.8011L618.966 48.0751ZM654.611 37.8365L655.609 37.6368L655.467 36.9258L654.749 36.8279L654.611 37.8365ZM654.99 39.7325L655.332 40.6914L656.161 40.3961L655.989 39.5329L654.99 39.7325ZM636.978 57.1761L636.012 56.8542L636.978 57.1761ZM633.376 83.3415L632.358 83.3294V83.3415H633.376ZM633.376 185.159H632.358V185.173L632.358 185.187L633.376 185.159ZM639.443 195.398L639.967 194.525L639.96 194.521L639.954 194.517L639.443 195.398ZM647.975 197.104H648.993V196.086H647.975V197.104ZM647.975 199V200.018H648.993V199H647.975ZM590.525 199H589.507V200.018H590.525V199ZM590.525 197.104V196.086H589.507V197.104H590.525ZM592.8 197.104V198.122C596.349 198.122 599.443 196.883 602.033 194.43L601.332 193.691L600.632 192.952C598.418 195.05 595.824 196.086 592.8 196.086V197.104ZM601.332 193.691L602.033 194.43C604.626 191.973 606.005 188.942 606.142 185.388L605.125 185.348L604.107 185.309C603.991 188.328 602.842 190.859 600.632 192.952L601.332 193.691ZM605.125 185.348H606.143V136.999H605.125H604.107V185.348H605.125ZM605.125 136.999V135.982H545.399V136.999V138.017H605.125V136.999ZM545.399 136.999H544.381V185.728H545.399H546.417V136.999H545.399ZM545.399 185.728H544.381C544.381 200.723 540.573 212.536 533.061 221.279L533.833 221.942L534.606 222.605C542.515 213.399 546.417 201.069 546.417 185.728H545.399ZM533.833 221.942L533.061 221.28C527.229 228.083 518.819 231.542 507.668 231.542V232.56V233.578C519.27 233.578 528.303 229.958 534.606 222.605L533.833 221.942ZM507.668 232.56V231.542C504.083 231.542 500.171 231.109 495.928 230.236L495.723 231.233L495.518 232.23C499.87 233.126 503.922 233.578 507.668 233.578V232.56ZM495.723 231.233L496.721 231.033L496.342 229.137L495.344 229.337L494.346 229.536L494.725 231.432L495.723 231.233ZM495.344 229.337L495.737 230.276C505.288 226.274 511.547 220.274 514.319 212.224L513.356 211.893L512.394 211.562C509.856 218.933 504.107 224.562 494.95 228.398L495.344 229.337ZM513.356 211.893L514.312 212.242C516.771 205.513 517.977 196.659 517.977 185.728H516.959H515.941C515.941 196.538 514.745 205.127 512.4 211.544L513.356 211.893ZM516.959 185.728H517.977V79.9286H516.959H515.941V185.728H516.959ZM516.959 79.9286L517.976 79.8895C517.839 76.3355 516.46 73.304 513.867 70.847L513.167 71.586L512.466 72.325C514.676 74.4185 515.825 76.9487 515.941 79.9677L516.959 79.9286ZM513.167 71.586L513.886 70.8662C511.416 68.3955 508.374 67.1552 504.824 67.1552V68.1731V69.1911C507.847 69.1911 510.367 70.226 512.447 72.3058L513.167 71.586ZM504.824 68.1731V67.1552H502.359V68.1731V69.1911H504.824V68.1731ZM502.359 68.1731H503.377V66.2771H502.359H501.341V68.1731H502.359ZM502.359 66.2771V67.295H559.999V66.2771V65.2592H502.359V66.2771ZM559.999 66.2771H558.981V68.1731H559.999H561.017V66.2771H559.999ZM559.999 68.1731V67.1552H557.534V68.1731V69.1911H559.999V68.1731ZM557.534 68.1731V67.1552C552.639 67.1552 548.888 69.2281 546.422 73.3375L547.295 73.8613L548.168 74.385C550.253 70.9102 553.328 69.1911 557.534 69.1911V68.1731ZM547.295 73.8613L546.439 73.3108C545.198 75.2407 544.518 77.4362 544.383 79.8721L545.399 79.9286L546.416 79.9851C546.533 77.8705 547.117 76.0211 548.152 74.4117L547.295 73.8613ZM545.399 79.9286H544.381V128.846H545.399H546.417V79.9286H545.399ZM545.399 128.846V129.864H605.125V128.846V127.829H545.399V128.846ZM605.125 128.846H606.143V83.3415H605.125H604.107V128.846H605.125ZM605.125 83.3415H606.143C606.143 68.782 610.675 57.3124 619.665 48.8149L618.966 48.0751L618.266 47.3353C608.802 56.2814 604.107 68.3227 604.107 83.3415H605.125ZM618.966 48.0751L619.679 48.8011C626.804 41.7995 635.767 38.2856 646.648 38.2856V37.2677V36.2497C635.282 36.2497 625.79 39.9408 618.252 47.3491L618.966 48.0751ZM646.648 37.2677V38.2856C649.125 38.2856 651.734 38.4714 654.474 38.8451L654.611 37.8365L654.749 36.8279C651.927 36.4431 649.227 36.2497 646.648 36.2497V37.2677ZM654.611 37.8365L653.613 38.0361L653.992 39.9321L654.99 39.7325L655.989 39.5329L655.609 37.6368L654.611 37.8365ZM654.99 39.7325L654.649 38.7736C645.165 42.1515 638.904 48.178 636.012 56.8542L636.978 57.1761L637.944 57.498C640.613 49.489 646.361 43.8865 655.332 40.6914L654.99 39.7325ZM636.978 57.1761L636.012 56.8542C633.692 63.8152 632.485 72.6514 632.358 83.3294L633.376 83.3415L634.393 83.3536C634.519 72.7959 635.714 64.1885 637.944 57.498L636.978 57.1761ZM633.376 83.3415H632.358V185.159H633.376H634.393V83.3415H633.376ZM633.376 185.159L632.358 185.187C632.494 190.088 634.707 193.824 638.932 196.278L639.443 195.398L639.954 194.517C636.342 192.42 634.51 189.331 634.393 185.131L633.376 185.159ZM639.443 195.398L638.919 196.27C640.978 197.506 643.246 198.122 645.7 198.122V197.104V196.086C643.604 196.086 641.7 195.565 639.967 194.525L639.443 195.398ZM645.7 197.104V198.122H647.975V197.104V196.086H645.7V197.104ZM647.975 197.104H646.957V199H647.975H648.993V197.104H647.975ZM647.975 199V197.982H590.525V199V200.018H647.975V199ZM590.525 199H591.543V197.104H590.525H589.507V199H590.525ZM590.525 197.104V198.122H592.8V197.104V196.086H590.525V197.104ZM798.583 197.104H799.601V196.086H798.583V197.104ZM798.583 199V200.018H799.601V199H798.583ZM738.099 199H737.081V200.018H738.099V199ZM738.099 197.104V196.086H737.081V197.104H738.099ZM745.873 194.639L745.073 194.01L745.066 194.018L745.873 194.639ZM747.011 185.159L746.065 185.536L746.068 185.543L746.071 185.55L747.011 185.159ZM737.72 161.838L738.666 161.461L738.41 160.82H737.72V161.838ZM693.353 161.838V160.82H692.678L692.415 161.441L693.353 161.838ZM683.493 185.159L682.556 184.763L682.549 184.778L682.543 184.793L683.493 185.159ZM684.441 194.639L683.613 195.231L683.637 195.265L683.664 195.297L684.441 194.639ZM692.405 197.104H693.423V196.086H692.405V197.104ZM692.405 199V200.018H693.423V199H692.405ZM651.829 199H650.811V200.018H651.829V199ZM651.829 197.104V196.086H650.811V197.104H651.829ZM662.258 194.449L662.787 195.319L662.258 194.449ZM669.463 186.486L670.36 186.967L670.378 186.933L670.394 186.897L669.463 186.486ZM713.261 87.3232L712.342 86.8866L712.336 86.8992L712.33 86.9119L713.261 87.3232ZM722.741 62.485V61.4671H721.814L721.728 62.39L722.741 62.485ZM724.448 62.485L725.374 62.063L725.103 61.4671H724.448V62.485ZM780.76 186.107L779.834 186.529L779.844 186.552L779.856 186.575L780.76 186.107ZM787.965 194.449L787.409 195.302L787.422 195.311L787.436 195.319L787.965 194.449ZM696.576 153.874L695.637 153.481L695.046 154.892H696.576V153.874ZM734.497 153.874V154.892H735.992L735.444 153.501L734.497 153.874ZM716.105 107.232L717.052 106.858L716.134 104.528L715.166 106.838L716.105 107.232ZM796.877 197.104V198.122H798.583V197.104V196.086H796.877V197.104ZM798.583 197.104H797.565V199H798.583H799.601V197.104H798.583ZM798.583 199V197.982H738.099V199V200.018H798.583V199ZM738.099 199H739.117V197.104H738.099H737.081V199H738.099ZM738.099 197.104V198.122H739.806V197.104V196.086H738.099V197.104ZM739.806 197.104V198.122C742.786 198.122 745.162 197.233 746.68 195.26L745.873 194.639L745.066 194.018C744.056 195.332 742.387 196.086 739.806 196.086V197.104ZM745.873 194.639L746.674 195.268C748.139 193.402 748.977 191.541 748.977 189.709H747.959H746.941C746.941 190.911 746.388 192.337 745.073 194.01L745.873 194.639ZM747.959 189.709H748.977C748.977 188.047 748.63 186.398 747.95 184.767L747.011 185.159L746.071 185.55C746.656 186.954 746.941 188.338 746.941 189.709H747.959ZM747.011 185.159L747.956 184.782L738.666 161.461L737.72 161.838L736.774 162.214L746.065 185.536L747.011 185.159ZM737.72 161.838V160.82H693.353V161.838V162.856H737.72V161.838ZM693.353 161.838L692.415 161.441L682.556 184.763L683.493 185.159L684.431 185.555L694.29 162.234L693.353 161.838ZM683.493 185.159L682.543 184.793C681.873 186.535 681.527 188.239 681.527 189.899H682.545H683.563C683.563 188.525 683.849 187.069 684.443 185.524L683.493 185.159ZM682.545 189.899H681.527C681.527 191.591 682.29 193.379 683.613 195.231L684.441 194.639L685.27 194.047C684.064 192.36 683.563 190.988 683.563 189.899H682.545ZM684.441 194.639L683.664 195.297C685.31 197.241 687.792 198.122 690.888 198.122V197.104V196.086C688.169 196.086 686.354 195.323 685.218 193.982L684.441 194.639ZM690.888 197.104V198.122H692.405V197.104V196.086H690.888V197.104ZM692.405 197.104H691.387V199H692.405H693.423V197.104H692.405ZM692.405 199V197.982H651.829V199V200.018H692.405V199ZM651.829 199H652.847V197.104H651.829H650.811V199H651.829ZM651.829 197.104V198.122H653.536V197.104V196.086H651.829V197.104ZM653.536 197.104V198.122C656.66 198.122 659.748 197.169 662.787 195.319L662.258 194.449L661.728 193.58C658.953 195.269 656.227 196.086 653.536 196.086V197.104ZM662.258 194.449L662.787 195.319C665.875 193.439 668.394 190.637 670.36 186.967L669.463 186.486L668.565 186.005C666.74 189.414 664.455 191.921 661.728 193.58L662.258 194.449ZM669.463 186.486L670.394 186.897L714.192 87.7344L713.261 87.3232L712.33 86.9119L668.531 186.075L669.463 186.486ZM713.261 87.3232L714.181 87.7597C717.157 81.4904 719.445 76.2656 721.038 72.0912C722.622 67.9422 723.551 64.7504 723.755 62.58L722.741 62.485L721.728 62.39C721.552 64.2645 720.712 67.2349 719.136 71.3652C717.569 75.4702 715.306 80.642 712.342 86.8866L713.261 87.3232ZM722.741 62.485V63.5029H724.448V62.485V61.4671H722.741V62.485ZM724.448 62.485L723.521 62.907L779.834 186.529L780.76 186.107L781.687 185.685L725.374 62.063L724.448 62.485ZM780.76 186.107L779.856 186.575C781.818 190.367 784.329 193.293 787.409 195.302L787.965 194.449L788.521 193.597C785.787 191.814 783.495 189.178 781.664 185.639L780.76 186.107ZM787.965 194.449L787.436 195.319C790.483 197.174 793.634 198.122 796.877 198.122V197.104V196.086C794.052 196.086 791.262 195.265 788.494 193.58L787.965 194.449ZM696.576 153.874V154.892H734.497V153.874V152.856H696.576V153.874ZM734.497 153.874L735.444 153.501L717.052 106.858L716.105 107.232L715.158 107.605L733.55 154.248L734.497 153.874ZM716.105 107.232L715.166 106.838L695.637 153.481L696.576 153.874L697.515 154.267L717.044 107.625L716.105 107.232ZM913.982 68.1731V69.1911H915V68.1731H913.982ZM903.554 70.8276L904.083 71.6971L903.554 70.8276ZM896.349 78.791L895.452 78.3103L895.436 78.3401L895.422 78.3708L896.349 78.791ZM851.413 177.954L852.336 178.383L852.34 178.374L851.413 177.954ZM842.122 202.792V203.81H843.049L843.136 202.887L842.122 202.792ZM840.416 202.792L839.493 203.221L839.766 203.81H840.416V202.792ZM782.966 78.9806L783.889 78.5521L783.877 78.5256L783.863 78.4999L782.966 78.9806ZM775.761 71.0172L775.205 71.8698L775.218 71.8785L775.232 71.8867L775.761 71.0172ZM765.333 68.1731H764.315V69.1911H765.333V68.1731ZM765.333 66.2771V65.2592H764.315V66.2771H765.333ZM825.627 66.2771H826.645V65.2592H825.627V66.2771ZM825.627 68.1731V69.1911H826.645V68.1731H825.627ZM817.853 70.8276L817.053 70.1987L817.046 70.2069L817.853 70.8276ZM816.715 80.1182L815.75 80.4401L815.761 80.4733L815.774 80.5057L816.715 80.1182ZM848.948 158.425L848.007 158.812L848.932 161.059L849.885 158.824L848.948 158.425ZM882.318 80.1182L883.255 80.5173L883.262 80.5006L883.268 80.4836L882.318 80.1182ZM881.181 70.8276L880.352 71.4193L880.377 71.4532L880.404 71.4851L881.181 70.8276ZM873.407 68.1731H872.389V69.1911H873.407V68.1731ZM873.407 66.2771V65.2592H872.389V66.2771H873.407ZM913.982 66.2771H915V65.2592H913.982V66.2771ZM913.982 68.1731V67.1552H912.276V68.1731V69.1911H913.982V68.1731ZM912.276 68.1731V67.1552C909.152 67.1552 906.064 68.1082 903.025 69.9581L903.554 70.8276L904.083 71.6971C906.859 70.0078 909.585 69.1911 912.276 69.1911V68.1731ZM903.554 70.8276L903.025 69.9581C899.936 71.8379 897.418 74.6399 895.452 78.3103L896.349 78.791L897.246 79.2717C899.072 75.8635 901.357 73.3565 904.083 71.6971L903.554 70.8276ZM896.349 78.791L895.422 78.3708L850.486 177.534L851.413 177.954L852.34 178.374L897.276 79.2111L896.349 78.791ZM851.413 177.954L850.49 177.525C847.577 183.794 845.337 189.019 843.776 193.192C842.224 197.341 841.312 200.531 841.109 202.697L842.122 202.792L843.136 202.887C843.312 201.009 844.138 198.036 845.683 193.906C847.219 189.8 849.434 184.628 852.336 178.383L851.413 177.954ZM842.122 202.792V201.774H840.416V202.792V203.81H842.122V202.792ZM840.416 202.792L841.339 202.364L783.889 78.5521L782.966 78.9806L782.042 79.409L839.493 203.221L840.416 202.792ZM782.966 78.9806L783.863 78.4999C781.897 74.8295 779.378 72.0275 776.29 70.1477L775.761 71.0172L775.232 71.8867C777.958 73.5462 780.243 76.0531 782.069 79.4613L782.966 78.9806ZM775.761 71.0172L776.317 70.1646C773.269 68.1766 770.108 67.1552 766.849 67.1552V68.1731V69.1911C769.658 69.1911 772.438 70.0657 775.205 71.8698L775.761 71.0172ZM766.849 68.1731V67.1552H765.333V68.1731V69.1911H766.849V68.1731ZM765.333 68.1731H766.351V66.2771H765.333H764.315V68.1731H765.333ZM765.333 66.2771V67.295H825.627V66.2771V65.2592H765.333V66.2771ZM825.627 66.2771H824.609V68.1731H825.627H826.645V66.2771H825.627ZM825.627 68.1731V67.1552H824.11V68.1731V69.1911H825.627V68.1731ZM824.11 68.1731V67.1552C821.098 67.1552 818.681 68.1259 817.053 70.1987L817.853 70.8276L818.653 71.4565C819.806 69.99 821.56 69.1911 824.11 69.1911V68.1731ZM817.853 70.8276L817.046 70.2069C815.695 71.9637 814.939 73.7568 814.939 75.5677H815.957H816.975C816.975 74.345 817.483 72.978 818.66 71.4482L817.853 70.8276ZM815.957 75.5677H814.939C814.939 77.1997 815.211 78.8251 815.75 80.4401L816.715 80.1182L817.681 79.7963C817.208 78.3776 816.975 76.9693 816.975 75.5677H815.957ZM816.715 80.1182L815.774 80.5057L848.007 158.812L848.948 158.425L849.889 158.037L817.657 79.7307L816.715 80.1182ZM848.948 158.425L849.885 158.824L883.255 80.5173L882.318 80.1182L881.382 79.7191L848.012 158.026L848.948 158.425ZM882.318 80.1182L883.268 80.4836C883.934 78.7535 884.284 77.1114 884.284 75.5677H883.266H882.248C882.248 76.8049 881.967 78.1964 881.368 79.7528L882.318 80.1182ZM883.266 75.5677H884.284C884.284 73.7265 883.44 71.9212 881.958 70.1701L881.181 70.8276L880.404 71.4851C881.703 73.0205 882.248 74.3753 882.248 75.5677H883.266ZM881.181 70.8276L882.009 70.2359C880.502 68.1255 878.121 67.1552 875.113 67.1552V68.1731V69.1911C877.667 69.1911 879.332 69.9904 880.352 71.4193L881.181 70.8276ZM875.113 68.1731V67.1552H873.407V68.1731V69.1911H875.113V68.1731ZM873.407 68.1731H874.425V66.2771H873.407H872.389V68.1731H873.407ZM873.407 66.2771V67.295H913.982V66.2771V65.2592H873.407V66.2771ZM913.982 66.2771H912.964V68.1731H913.982H915V66.2771H913.982ZM926.982 193.691L927.702 194.411L926.982 193.691ZM930.774 185.159L931.791 185.198L931.792 185.178V185.159H930.774ZM930.774 79.5494H931.792V79.5058L931.788 79.4624L930.774 79.5494ZM924.517 69.69L925.019 68.8043L925.008 68.7979L924.996 68.7918L924.517 69.69ZM916.175 68.1731H915.157V69.1911H916.175V68.1731ZM916.175 66.2771V65.2592H915.157V66.2771H916.175ZM1011.55 62.8642H1012.56V61.3607L1011.17 61.9191L1011.55 62.8642ZM1011.55 96.0449V97.0629H1012.56V96.0449H1011.55ZM1009.65 96.0449H1008.63V97.0629H1009.65V96.0449ZM1004.53 80.1182L1003.78 80.8109L1003.8 80.8247L1003.81 80.838L1004.53 80.1182ZM991.068 74.4301L991.113 73.4131L991.091 73.4121H991.068V74.4301ZM959.215 74.4301V73.4121H958.197V74.4301H959.215ZM959.215 129.605H958.197V130.623H959.215V129.605ZM984.242 129.605V130.623H984.256L984.27 130.622L984.242 129.605ZM995.808 124.865L996.528 125.585L996.535 125.577L996.543 125.57L995.808 124.865ZM1000.36 111.592V110.575H999.341V111.592H1000.36ZM1002.25 111.592H1003.27V110.575H1002.25V111.592ZM1002.25 155.391V156.409H1003.27V155.391H1002.25ZM1000.36 155.391H999.341V156.409H1000.36V155.391ZM992.775 139.844L993.298 138.971L993.282 138.961L993.265 138.952L992.775 139.844ZM984.432 137.568L984.474 136.551L984.453 136.55H984.432V137.568ZM959.215 137.568V136.55H958.197V137.568H959.215ZM959.215 190.847H958.197V191.865H959.215V190.847ZM1007.18 182.884L1006.53 182.104L1006.52 182.111L1007.18 182.884ZM1021.22 160.321V159.303H1020.47L1020.24 160.018L1021.22 160.321ZM1023.11 160.321L1024.1 160.545L1024.38 159.303H1023.11V160.321ZM1014.39 199V200.018H1015.2L1015.38 199.224L1014.39 199ZM916.175 199H915.157V200.018H916.175V199ZM916.175 197.104V196.086H915.157V197.104H916.175ZM918.639 197.104V198.122C922.189 198.122 925.231 196.882 927.702 194.411L926.982 193.691L926.262 192.971C924.182 195.051 921.662 196.086 918.639 196.086V197.104ZM926.982 193.691L927.702 194.411C930.278 191.834 931.655 188.75 931.791 185.198L930.774 185.159L929.757 185.12C929.641 188.141 928.489 190.744 926.262 192.971L926.982 193.691ZM930.774 185.159H931.792V79.5494H930.774H929.756V185.159H930.774ZM930.774 79.5494L931.788 79.4624C931.381 74.7114 929.11 71.1224 925.019 68.8043L924.517 69.69L924.015 70.5756C927.509 72.5553 929.409 75.5391 929.76 79.6363L930.774 79.5494ZM924.517 69.69L924.996 68.7918C922.962 67.707 920.839 67.1552 918.639 67.1552V68.1731V69.1911C920.484 69.1911 922.28 69.6505 924.038 70.5881L924.517 69.69ZM918.639 68.1731V67.1552H916.175V68.1731V69.1911H918.639V68.1731ZM916.175 68.1731H917.193V66.2771H916.175H915.157V68.1731H916.175ZM916.175 66.2771V67.295H988.793V66.2771V65.2592H916.175V66.2771ZM988.793 66.2771V67.295C992.776 67.295 997.129 66.9097 1001.85 66.1443L1001.69 65.1395L1001.52 64.1347C996.889 64.8861 992.647 65.2592 988.793 65.2592V66.2771ZM1001.69 65.1395L1001.85 66.1443C1006.53 65.3854 1009.91 64.6133 1011.92 63.8093L1011.55 62.8642L1011.17 61.9191C1009.39 62.632 1006.2 63.3767 1001.52 64.1347L1001.69 65.1395ZM1011.55 62.8642H1010.53V96.0449H1011.55H1012.56V62.8642H1011.55ZM1011.55 96.0449V95.027H1009.65V96.0449V97.0629H1011.55V96.0449ZM1009.65 96.0449H1010.67V93.7697H1009.65H1008.63V96.0449H1009.65ZM1009.65 93.7697H1010.67C1010.67 87.8635 1008.89 83.036 1005.25 79.3984L1004.53 80.1182L1003.81 80.838C1007 84.0262 1008.63 88.2997 1008.63 93.7697H1009.65ZM1004.53 80.1182L1005.28 79.4255C1001.78 75.6557 997.017 73.6755 991.113 73.4131L991.068 74.4301L991.023 75.447C996.495 75.6902 1000.71 77.5022 1003.78 80.8109L1004.53 80.1182ZM991.068 74.4301V73.4121H959.215V74.4301V75.448H991.068V74.4301ZM959.215 74.4301H958.197V129.605H959.215H960.233V74.4301H959.215ZM959.215 129.605V130.623H984.242V129.605V128.587H959.215V129.605ZM984.242 129.605L984.27 130.622C989.182 130.49 993.293 128.82 996.528 125.585L995.808 124.865L995.089 124.145C992.257 126.977 988.657 128.467 984.215 128.587L984.242 129.605ZM995.808 124.865L996.543 125.57C999.766 122.212 1001.38 118.101 1001.38 113.299H1000.36H999.341C999.341 117.598 997.918 121.197 995.074 124.16L995.808 124.865ZM1000.36 113.299H1001.38V111.592H1000.36H999.341V113.299H1000.36ZM1000.36 111.592V112.61H1002.25V111.592V110.575H1000.36V111.592ZM1002.25 111.592H1001.24V155.391H1002.25H1003.27V111.592H1002.25ZM1002.25 155.391V154.373H1000.36V155.391V156.409H1002.25V155.391ZM1000.36 155.391H1001.38V153.874H1000.36H999.341V155.391H1000.36ZM1000.36 153.874H1001.38C1001.38 147.228 998.687 142.204 993.298 138.971L992.775 139.844L992.251 140.716C996.975 143.551 999.341 147.88 999.341 153.874H1000.36ZM992.775 139.844L993.265 138.952C990.592 137.481 987.657 136.684 984.474 136.551L984.432 137.568L984.39 138.585C987.275 138.706 989.901 139.425 992.284 140.735L992.775 139.844ZM984.432 137.568V136.55H959.215V137.568V138.586H984.432V137.568ZM959.215 137.568H958.197V190.847H959.215H960.233V137.568H959.215ZM959.215 190.847V191.865H984.053V190.847V189.829H959.215V190.847ZM984.053 190.847V191.865C993.489 191.865 1001.44 189.144 1007.85 183.657L1007.18 182.884L1006.52 182.111C1000.54 187.241 993.071 189.829 984.053 189.829V190.847ZM1007.18 182.884L1007.84 183.663C1014.34 178.202 1019.11 170.499 1022.19 160.624L1021.22 160.321L1020.24 160.018C1017.25 169.609 1012.67 176.947 1006.53 182.104L1007.18 182.884ZM1021.22 160.321V161.339H1023.11V160.321V159.303H1021.22V160.321ZM1023.11 160.321L1022.12 160.097L1013.4 198.776L1014.39 199L1015.38 199.224L1024.1 160.545L1023.11 160.321ZM1014.39 199V197.982H916.175V199V200.018H1014.39V199ZM916.175 199H917.193V197.104H916.175H915.157V199H916.175ZM916.175 197.104V198.122H918.639V197.104V196.086H916.175V197.104ZM1174.58 71.586L1175.28 72.3261L1175.29 72.3161L1175.3 72.3058L1174.58 71.586ZM1170.98 79.5494L1169.96 79.5087L1169.96 79.529V79.5494H1170.98ZM1172.68 198.81L1171.68 199.006L1171.68 199.01L1172.68 198.81ZM1173.25 201.654V202.672H1174.49L1174.25 201.455L1173.25 201.654ZM1171.54 201.654L1170.84 202.392L1171.14 202.672H1171.54V201.654ZM1075.79 110.455L1076.5 109.718L1074.78 108.08V110.455H1075.79ZM1079.21 193.881L1078.49 194.6L1078.5 194.611L1078.51 194.621L1079.21 193.881ZM1090.96 197.104H1091.98V196.086H1090.96V197.104ZM1090.96 199V200.018H1091.98V199H1090.96ZM1033.51 199H1032.49V200.018H1033.51V199ZM1033.51 197.104V196.086H1032.49V197.104H1033.51ZM1045.27 193.881L1045.97 194.621L1045.98 194.611L1045.99 194.6L1045.27 193.881ZM1046.97 66.2771L1045.97 66.4116L1045.97 66.4466L1045.98 66.4811L1046.97 66.2771ZM1046.6 63.433V62.4151H1045.43L1045.59 63.5676L1046.6 63.433ZM1048.3 63.433L1049 62.6959L1048.71 62.4151H1048.3V63.433ZM1144.05 154.633L1143.35 155.37L1145.07 157.008V154.633H1144.05ZM1144.05 79.739H1145.07V79.7194L1145.07 79.6999L1144.05 79.739ZM1140.45 71.586L1139.73 72.3058L1139.74 72.3161L1139.75 72.3261L1140.45 71.586ZM1128.88 68.1731H1127.87V69.1911H1128.88V68.1731ZM1128.88 66.2771V65.2592H1127.87V66.2771H1128.88ZM1186.33 66.2771H1187.35V65.2592H1186.33V66.2771ZM1186.33 68.1731V69.1911H1187.35V68.1731H1186.33ZM1182.73 68.1731V67.1552C1179.3 67.1552 1176.32 68.404 1173.86 70.8662L1174.58 71.586L1175.3 72.3058C1177.39 70.2175 1179.85 69.1911 1182.73 69.1911V68.1731ZM1174.58 71.586L1173.88 70.846C1171.41 73.1796 1170.1 76.086 1169.96 79.5087L1170.98 79.5494L1171.99 79.5901C1172.11 76.6926 1173.2 74.2902 1175.28 72.3261L1174.58 71.586ZM1170.98 79.5494H1169.96V177.385H1170.98H1171.99V79.5494H1170.98ZM1170.98 177.385H1169.96C1169.96 185.894 1170.53 193.106 1171.68 199.006L1172.68 198.81L1173.68 198.615C1172.56 192.886 1171.99 185.814 1171.99 177.385H1170.98ZM1172.68 198.81L1171.68 199.01L1172.25 201.854L1173.25 201.654L1174.25 201.455L1173.68 198.611L1172.68 198.81ZM1173.25 201.654V200.637H1171.54V201.654V202.672H1173.25V201.654ZM1171.54 201.654L1172.25 200.917L1076.5 109.718L1075.79 110.455L1075.09 111.192L1170.84 202.392L1171.54 201.654ZM1075.79 110.455H1074.78V185.728H1075.79H1076.81V110.455H1075.79ZM1075.79 185.728H1074.78C1074.78 189.163 1076.03 192.138 1078.49 194.6L1079.21 193.881L1079.93 193.161C1077.84 191.073 1076.81 188.612 1076.81 185.728H1075.79ZM1079.21 193.881L1078.51 194.621C1080.97 196.95 1083.94 198.122 1087.36 198.122V197.104V196.086C1084.46 196.086 1081.99 195.109 1079.91 193.141L1079.21 193.881ZM1087.36 197.104V198.122H1090.96V197.104V196.086H1087.36V197.104ZM1090.96 197.104H1089.95V199H1090.96H1091.98V197.104H1090.96ZM1090.96 199V197.982H1033.51V199V200.018H1090.96V199ZM1033.51 199H1034.53V197.104H1033.51H1032.49V199H1033.51ZM1033.51 197.104V198.122H1036.93V197.104V196.086H1033.51V197.104ZM1036.93 197.104V198.122C1040.46 198.122 1043.49 196.958 1045.97 194.621L1045.27 193.881L1044.57 193.141C1042.49 195.101 1039.97 196.086 1036.93 196.086V197.104ZM1045.27 193.881L1045.99 194.6C1048.46 192.13 1049.7 189.088 1049.7 185.538H1048.68H1047.66C1047.66 188.561 1046.63 191.081 1044.55 193.161L1045.27 193.881ZM1048.68 185.538H1049.7V87.1336H1048.68H1047.66V185.538H1048.68ZM1048.68 87.1336H1049.7C1049.7 78.7512 1049.13 71.7252 1047.97 66.0731L1046.97 66.2771L1045.98 66.4811C1047.1 71.9524 1047.66 78.8307 1047.66 87.1336H1048.68ZM1046.97 66.2771L1047.98 66.1426L1047.6 63.2985L1046.6 63.433L1045.59 63.5676L1045.97 66.4116L1046.97 66.2771ZM1046.6 63.433V64.451H1048.3V63.433V62.4151H1046.6V63.433ZM1048.3 63.433L1047.6 64.1701L1143.35 155.37L1144.05 154.633L1144.75 153.896L1049 62.6959L1048.3 63.433ZM1144.05 154.633H1145.07V79.739H1144.05H1143.03V154.633H1144.05ZM1144.05 79.739L1145.07 79.6999C1144.93 76.1621 1143.63 73.1879 1141.15 70.846L1140.45 71.586L1139.75 72.3261C1141.82 74.2819 1142.92 76.7429 1143.04 79.7781L1144.05 79.739ZM1140.45 71.586L1141.17 70.8662C1138.71 68.404 1135.73 67.1552 1132.3 67.1552V68.1731V69.1911C1135.18 69.1911 1137.64 70.2175 1139.73 72.3058L1140.45 71.586ZM1132.3 68.1731V67.1552H1128.88V68.1731V69.1911H1132.3V68.1731ZM1128.88 68.1731H1129.9V66.2771H1128.88H1127.87V68.1731H1128.88ZM1128.88 66.2771V67.295H1186.33V66.2771V65.2592H1128.88V66.2771ZM1186.33 66.2771H1185.32V68.1731H1186.33H1187.35V66.2771H1186.33ZM1186.33 68.1731V67.1552H1182.73V68.1731V69.1911H1186.33V68.1731Z" fill="#6E97F2" fill-opacity="0.99" mask="url(#path-1-outside-1_14838_4342)"/>
</g>
</g>
<rect y="29" width="1192" height="178" fill="url(#paint0_linear_14838_4342)"/>
<defs>
<filter id="filter0_f_14838_4342" x="4.29881" y="33.6031" width="1185.7" height="214.756" filterUnits="userSpaceOnUse" color-interpolation-filters="sRGB">
<feFlood flood-opacity="0" result="BackgroundImageFix"/>
<feBlend mode="normal" in="SourceGraphic" in2="BackgroundImageFix" result="shape"/>
<feGaussianBlur stdDeviation="1.32331" result="effect1_foregroundBlur_14838_4342"/>
</filter>
<linearGradient id="paint0_linear_14838_4342" x1="572.896" y1="46.3056" x2="572.896" y2="207" gradientUnits="userSpaceOnUse">
<stop stop-color="#2563EB" stop-opacity="0"/>
<stop offset="0.904639" stop-color="#2563EB"/>
</linearGradient>
<clipPath id="clip0_14838_4342">
<rect width="1192" height="200" fill="white"/>
</clipPath>
</defs>
</svg>
