<svg width="168" height="38" viewBox="0 0 168 38" fill="none" xmlns="http://www.w3.org/2000/svg">
<g filter="url(#filter0_dddi_14838_4346)">
<g clip-path="url(#clip0_14838_4346)">
<path d="M3 14.8C3 10.3196 3 8.07937 3.87195 6.36808C4.63893 4.86278 5.86278 3.63893 7.36808 2.87195C9.07937 2 11.3196 2 15.8 2H22.2C26.6804 2 28.9206 2 30.6319 2.87195C32.1372 3.63893 33.3611 4.86278 34.1281 6.36808C35 8.07937 35 10.3196 35 14.8V21.2C35 25.6804 35 27.9206 34.1281 29.6319C33.3611 31.1372 32.1372 32.3611 30.6319 33.1281C28.9206 34 26.6804 34 22.2 34H15.8C11.3196 34 9.07937 34 7.36808 33.1281C5.86278 32.3611 4.63893 31.1372 3.87195 29.6319C3 27.9206 3 25.6804 3 21.2V14.8Z" fill="white"/>
<path d="M3 14.8C3 10.3196 3 8.07937 3.87195 6.36808C4.63893 4.86278 5.86278 3.63893 7.36808 2.87195C9.07937 2 11.3196 2 15.8 2H22.2C26.6804 2 28.9206 2 30.6319 2.87195C32.1372 3.63893 33.3611 4.86278 34.1281 6.36808C35 8.07937 35 10.3196 35 14.8V21.2C35 25.6804 35 27.9206 34.1281 29.6319C33.3611 31.1372 32.1372 32.3611 30.6319 33.1281C28.9206 34 26.6804 34 22.2 34H15.8C11.3196 34 9.07937 34 7.36808 33.1281C5.86278 32.3611 4.63893 31.1372 3.87195 29.6319C3 27.9206 3 25.6804 3 21.2V14.8Z" fill="url(#paint0_linear_14838_4346)" fill-opacity="0.2"/>
<path d="M16.1572 9.00049V9.17725H15.9287C15.6231 9.17725 15.3581 9.28888 15.1348 9.51221C14.9497 9.69732 14.8407 9.91822 14.8086 10.1753L14.7998 10.2876V20.4429H17.8428V15.9448L17.833 15.8325C17.7996 15.5755 17.6855 15.3545 17.4902 15.1694C17.2787 14.9461 17.0195 14.8345 16.7139 14.8345H16.4854V14.6577H22.8145V14.8345H22.585C22.2795 14.8346 22.0152 14.9462 21.792 15.1694C21.607 15.3546 21.4979 15.5754 21.4658 15.8325L21.457 15.9448V20.3882H26.2002V15.9448L26.1943 15.8325C26.1699 15.5755 26.0604 15.3545 25.8652 15.1694C25.6419 14.9461 25.3769 14.8345 25.0713 14.8345H24.8418V14.6577H31.1719V14.8345H30.9424C30.6369 14.8345 30.3727 14.9462 30.1494 15.1694C29.9643 15.3546 29.8554 15.5754 29.8232 15.8325L29.8145 15.9448V25.7124L29.8232 25.8257C29.8555 26.0839 29.9644 26.3111 30.1494 26.5063C30.3726 26.7177 30.637 26.8237 30.9424 26.8237H31.1719V26.9995H24.8418V26.8237H25.0713C25.3769 26.8237 25.6419 26.7179 25.8652 26.5063C26.0605 26.3111 26.1698 26.0839 26.1943 25.8257L26.2002 25.7124V21.269H21.457V25.7124L21.4658 25.8257C21.498 26.0839 21.607 26.311 21.792 26.5063C22.0152 26.7177 22.2796 26.8236 22.585 26.8237H22.8145V26.9995H16.4854V26.8237H16.7139C17.0194 26.8237 17.2787 26.7179 17.4902 26.5063C17.6855 26.3111 17.7995 26.0839 17.833 25.8257L17.8428 25.7124V21.3423H9.82812V21.1665H10.0566C10.3622 21.1665 10.6214 21.0606 10.833 20.8491C11.0283 20.6538 11.1423 20.4267 11.1758 20.1685L11.1855 20.0552V10.2876L11.1758 10.1753C11.1424 9.91828 11.0283 9.69729 10.833 9.51221C10.6214 9.28888 10.3622 9.17725 10.0566 9.17725H9.82812V9.00049H16.1572Z" fill="#19429D"/>
</g>
<path d="M15.7998 2.09961H22.2002C24.442 2.09961 26.1173 2.1004 27.4463 2.20898C28.7741 2.31747 29.7477 2.53335 30.5869 2.96094C32.0732 3.7183 33.2817 4.92681 34.0391 6.41309C34.4666 7.25227 34.6825 8.22592 34.791 9.55371C34.8996 10.8827 34.9004 12.558 34.9004 14.7998V21.2002C34.9004 23.442 34.8996 25.1173 34.791 26.4463C34.6825 27.7741 34.4666 28.7477 34.0391 29.5869C33.2817 31.0732 32.0732 32.2817 30.5869 33.0391C29.7477 33.4666 28.7741 33.6825 27.4463 33.791C26.1173 33.8996 24.442 33.9004 22.2002 33.9004H15.7998C13.558 33.9004 11.8827 33.8996 10.5537 33.791C9.22592 33.6825 8.25227 33.4666 7.41309 33.0391C5.92681 32.2817 4.7183 31.0732 3.96094 29.5869C3.53335 28.7477 3.31747 27.7741 3.20898 26.4463C3.1004 25.1173 3.09961 23.442 3.09961 21.2002V14.7998C3.09961 12.558 3.1004 10.8827 3.20898 9.55371C3.31747 8.22592 3.53335 7.25227 3.96094 6.41309C4.7183 4.92681 5.92681 3.7183 7.41309 2.96094C8.25227 2.53335 9.22592 2.31747 10.5537 2.20898C11.8827 2.1004 13.558 2.09961 15.7998 2.09961Z" stroke="#0A0D12" stroke-opacity="0.12" stroke-width="0.2"/>
</g>
<path d="M60.9688 26.0991C62.2652 26.0991 63.3124 25.8436 64.1102 25.3325L64.2411 25.4821C63.169 26.9655 61.8351 27.7883 60.2395 27.9503C59.9029 27.9877 59.61 28.0064 59.3607 28.0064C59.1238 28.0064 58.8433 27.9939 58.5192 27.969C58.2076 27.9565 57.765 27.8755 57.1916 27.7259C56.6182 27.5763 56.1133 27.4205 55.677 27.2585C55.2407 27.1089 54.7358 26.9032 54.1624 26.6414C53.589 26.3921 53.1153 26.1677 52.7413 25.9682C52.3673 25.7813 51.9186 25.5506 51.395 25.2764C50.8839 25.0146 50.4351 24.7902 50.0487 24.6032C49.6622 24.4162 49.2883 24.2542 48.9267 24.1171C47.9045 23.7057 46.8574 23.5 45.7853 23.5V23.313H46.0284C46.3525 23.313 46.6268 23.2008 46.8512 22.9764C47.088 22.752 47.2127 22.4716 47.2252 22.135V11.7759C47.2127 11.4393 47.088 11.1588 46.8512 10.9344C46.6268 10.71 46.3525 10.5978 46.0284 10.5978H45.7853V10.4108H51.4698L51.4511 10.5978H51.2641C50.7904 10.5978 50.4351 10.7911 50.1983 11.1775C50.0861 11.352 50.03 11.5515 50.03 11.7759V22.6212C50.03 23.0325 50.111 23.3192 50.2731 23.4813C50.4351 23.6309 50.6159 23.7369 50.8153 23.7992C55.5025 25.3325 58.887 26.0991 60.9688 26.0991ZM67.7519 10.5978H67.434C67.1722 10.5978 66.9416 10.6851 66.7422 10.8596C66.5552 11.0217 66.4617 11.2274 66.4617 11.4767V18.7692C66.4617 20.3025 65.9818 21.5179 65.0219 22.4155C64.062 23.313 62.7469 23.7618 61.0764 23.7618C59.1068 23.7618 57.5985 23.3255 56.5513 22.4529C55.5042 21.5678 54.9806 20.3461 54.9806 18.7879V11.5328C54.9806 11.2585 54.8809 11.0341 54.6814 10.8596C54.4945 10.6851 54.2638 10.5978 53.9896 10.5978H53.6904V10.4108H59.0757V10.5978H58.7765C58.5022 10.5978 58.2716 10.6851 58.0846 10.8596C57.8976 11.0217 57.7979 11.2336 57.7854 11.4954V18.6383C57.7854 19.9597 58.1096 21.0068 58.7578 21.7797C59.406 22.5526 60.2973 22.939 61.4317 22.939C62.5661 22.939 63.4636 22.5775 64.1243 21.8545C64.785 21.119 65.1216 20.128 65.1341 18.8814V11.4954C65.1341 11.2336 65.0343 11.0217 64.8349 10.8596C64.6479 10.6851 64.4173 10.5978 64.143 10.5978H63.8439V10.4108H67.7519V10.5978ZM76.3588 23.313C76.6205 23.313 76.8325 23.1884 76.9945 22.939C77.0693 22.8019 77.1067 22.671 77.1067 22.5464C77.1067 22.4217 77.0693 22.297 76.9945 22.1724L74.3767 18.096L71.628 22.1537C71.416 22.5277 71.4784 22.8518 71.8149 23.126C71.9645 23.2507 72.1204 23.313 72.2824 23.313H72.5255V23.5H67.9069V23.313H68.1687C68.8668 23.313 69.4838 22.964 70.0199 22.2659L73.7035 17.0489L70.2443 11.7011C70.0323 11.3894 69.7581 11.1276 69.4215 10.9157C69.0849 10.7038 68.7296 10.5978 68.3557 10.5978H68.0939V10.4108H74.4515V10.5978H74.2084C73.9466 10.5978 73.7347 10.7225 73.5726 10.9718C73.4978 11.1089 73.4604 11.2461 73.4604 11.3832C73.4604 11.5078 73.4916 11.6263 73.5539 11.7385L75.8913 15.3473L78.1912 11.7572C78.266 11.6325 78.3034 11.5078 78.3034 11.3832C78.3034 11.2461 78.2598 11.1152 78.1725 10.9905C78.0105 10.7287 77.7986 10.5978 77.5368 10.5978H77.2937V10.4108H81.8936V10.5978H81.6318C81.2578 10.5978 80.9088 10.7038 80.5847 10.9157C80.2606 11.1152 79.9863 11.3707 79.7619 11.6824L76.5831 16.4132L80.3416 22.2285C80.5535 22.5401 80.8278 22.8019 81.1643 23.0138C81.5134 23.2133 81.8687 23.313 82.2302 23.313H82.492V23.5H76.1157V23.313H76.3588ZM82.9878 23.313C83.3119 23.313 83.5861 23.2008 83.8105 22.9764C84.0474 22.7396 84.172 22.4591 84.1845 22.135V11.7198C84.1471 11.2835 83.9414 10.9593 83.5674 10.7474C83.3804 10.6477 83.1872 10.5978 82.9878 10.5978H82.7447V10.4108H89.9063C90.2928 10.4108 90.7166 10.3734 91.1778 10.2986C91.6391 10.2239 91.9632 10.1491 92.1502 10.0743V13.3466H91.9632V13.1222C91.9632 12.5612 91.7949 12.1124 91.4583 11.7759C91.1342 11.4268 90.6917 11.2398 90.1307 11.2149H86.9893V16.6562H89.4576C89.9188 16.6438 90.299 16.488 90.5982 16.1888C90.8974 15.8771 91.047 15.4969 91.047 15.0481V14.8799H91.2339V19.1993H91.047V19.0497C91.047 18.4264 90.7976 17.9652 90.299 17.666C90.0497 17.5289 89.7754 17.4541 89.4763 17.4416H86.9893V22.696H89.4389C90.3489 22.696 91.1093 22.4342 91.7201 21.9106C92.3434 21.387 92.8046 20.6453 93.1038 19.6854H93.2908L92.4307 23.5H82.7447V23.313H82.9878Z" fill="black"/>
<path d="M108.21 23.313C108.534 23.313 108.814 23.2008 109.051 22.9764C109.288 22.752 109.413 22.4778 109.425 22.1537V17.3855H103.535V22.1911C103.535 23.687 103.155 24.8775 102.394 25.7626C101.796 26.4606 100.936 26.8097 99.8141 26.8097C99.4525 26.8097 99.0599 26.7661 98.636 26.6788L98.5986 26.4918C99.5211 26.1054 100.113 25.5319 100.375 24.7715C100.612 24.1233 100.73 23.2631 100.73 22.1911V11.7572C100.718 11.433 100.593 11.1588 100.356 10.9344C100.132 10.71 99.8577 10.5978 99.5336 10.5978H99.2905V10.4108H104.975V10.5978H104.732C104.283 10.5978 103.946 10.7848 103.722 11.1588C103.61 11.3333 103.548 11.5328 103.535 11.7572V16.5814H109.425V12.0937C109.425 10.6352 109.88 9.4759 110.79 8.61576C111.513 7.9052 112.423 7.54993 113.52 7.54993C113.77 7.54993 114.031 7.56863 114.306 7.60602L114.343 7.79301C113.433 8.11712 112.841 8.69055 112.567 9.5133C112.342 10.1865 112.224 11.0466 112.211 12.0937V22.135C112.224 22.5838 112.423 22.9203 112.81 23.1447C112.997 23.2569 113.202 23.313 113.427 23.313H113.651V23.5H107.985V23.313H108.21ZM128.336 23.313H128.504V23.5H122.539V23.313H122.708C122.982 23.313 123.181 23.232 123.306 23.0699C123.443 22.8954 123.512 22.7333 123.512 22.5838C123.512 22.4342 123.48 22.2846 123.418 22.135L122.502 19.835H118.126L117.154 22.135C117.092 22.297 117.06 22.4529 117.06 22.6025C117.06 22.7396 117.123 22.8954 117.247 23.0699C117.385 23.232 117.597 23.313 117.883 23.313H118.033V23.5H114.031V23.313H114.2C114.486 23.313 114.773 23.2258 115.06 23.0512C115.346 22.8767 115.583 22.6149 115.77 22.2659L120.09 12.4864C120.676 11.2523 120.987 10.4358 121.025 10.0369H121.193L126.746 22.2285C126.933 22.59 127.17 22.8642 127.457 23.0512C127.744 23.2258 128.037 23.313 128.336 23.313ZM118.444 19.0497H122.184L120.37 14.4498L118.444 19.0497ZM139.885 10.5978H139.717C139.43 10.5978 139.143 10.6851 138.856 10.8596C138.57 11.0341 138.333 11.2959 138.146 11.645L133.714 21.4244C133.141 22.6586 132.835 23.4751 132.798 23.874H132.63L126.964 11.6637C126.777 11.3146 126.54 11.0528 126.253 10.8783C125.967 10.6913 125.674 10.5978 125.375 10.5978H125.225V10.4108H131.171V10.5978H131.022C130.747 10.5978 130.542 10.6851 130.405 10.8596C130.28 11.0217 130.218 11.1775 130.218 11.3271C130.218 11.4767 130.243 11.6263 130.292 11.7759L133.471 19.4985L136.762 11.7759C136.824 11.6138 136.856 11.4642 136.856 11.3271C136.856 11.1775 136.787 11.0217 136.65 10.8596C136.525 10.6851 136.326 10.5978 136.052 10.5978H135.883V10.4108H139.885V10.5978ZM140.344 23.313C140.668 23.313 140.942 23.2008 141.167 22.9764C141.404 22.7396 141.528 22.4591 141.541 22.135V11.7198C141.503 11.2835 141.298 10.9593 140.924 10.7474C140.737 10.6477 140.544 10.5978 140.344 10.5978H140.101V10.4108H147.263C147.649 10.4108 148.073 10.3734 148.534 10.2986C148.995 10.2239 149.32 10.1491 149.507 10.0743V13.3466H149.32V13.1222C149.32 12.5612 149.151 12.1124 148.815 11.7759C148.491 11.4268 148.048 11.2398 147.487 11.2149H144.346V16.6562H146.814C147.275 16.6438 147.655 16.488 147.955 16.1888C148.254 15.8771 148.403 15.4969 148.403 15.0481V14.8799H148.59V19.1993H148.403V19.0497C148.403 18.4264 148.154 17.9652 147.655 17.666C147.406 17.5289 147.132 17.4541 146.833 17.4416H144.346V22.696H146.795C147.705 22.696 148.466 22.4342 149.076 21.9106C149.7 21.387 150.161 20.6453 150.46 19.6854H150.647L149.787 23.5H140.101V23.313H140.344ZM166.389 10.5978C166.077 10.5978 165.809 10.71 165.585 10.9344C165.36 11.1463 165.242 11.4081 165.23 11.7198V21.3683C165.23 22.2036 165.286 22.9079 165.398 23.4813L165.454 23.7618H165.286L155.843 14.7677V22.1911C155.843 22.5027 155.955 22.7707 156.179 22.9951C156.404 23.2071 156.672 23.313 156.983 23.313H157.339V23.5H151.673V23.313H152.01C152.334 23.313 152.608 23.2071 152.832 22.9951C153.057 22.7707 153.169 22.4965 153.169 22.1724V12.4677C153.169 11.645 153.113 10.9593 153.001 10.4108L152.963 10.1304H153.131L162.574 19.1245V11.7385C162.562 11.4143 162.443 11.1463 162.219 10.9344C161.995 10.71 161.727 10.5978 161.415 10.5978H161.078V10.4108H166.744V10.5978H166.389Z" fill="#2563EB"/>
<defs>
<filter id="filter0_dddi_14838_4346" x="0" y="0" width="38" height="38" filterUnits="userSpaceOnUse" color-interpolation-filters="sRGB">
<feFlood flood-opacity="0" result="BackgroundImageFix"/>
<feColorMatrix in="SourceAlpha" type="matrix" values="0 0 0 0 0 0 0 0 0 0 0 0 0 0 0 0 0 0 127 0" result="hardAlpha"/>
<feOffset dy="1"/>
<feGaussianBlur stdDeviation="1"/>
<feColorMatrix type="matrix" values="0 0 0 0 0.0392157 0 0 0 0 0.0509804 0 0 0 0 0.0705882 0 0 0 0.06 0"/>
<feBlend mode="normal" in2="BackgroundImageFix" result="effect1_dropShadow_14838_4346"/>
<feColorMatrix in="SourceAlpha" type="matrix" values="0 0 0 0 0 0 0 0 0 0 0 0 0 0 0 0 0 0 127 0" result="hardAlpha"/>
<feOffset dy="1"/>
<feGaussianBlur stdDeviation="1.5"/>
<feColorMatrix type="matrix" values="0 0 0 0 0.0392157 0 0 0 0 0.0509804 0 0 0 0 0.0705882 0 0 0 0.1 0"/>
<feBlend mode="normal" in2="effect1_dropShadow_14838_4346" result="effect2_dropShadow_14838_4346"/>
<feColorMatrix in="SourceAlpha" type="matrix" values="0 0 0 0 0 0 0 0 0 0 0 0 0 0 0 0 0 0 127 0" result="hardAlpha"/>
<feMorphology radius="0.5" operator="erode" in="SourceAlpha" result="effect3_dropShadow_14838_4346"/>
<feOffset dy="1"/>
<feGaussianBlur stdDeviation="0.5"/>
<feComposite in2="hardAlpha" operator="out"/>
<feColorMatrix type="matrix" values="0 0 0 0 0.0392157 0 0 0 0 0.0509804 0 0 0 0 0.0705882 0 0 0 0.13 0"/>
<feBlend mode="normal" in2="effect2_dropShadow_14838_4346" result="effect3_dropShadow_14838_4346"/>
<feBlend mode="normal" in="SourceGraphic" in2="effect3_dropShadow_14838_4346" result="shape"/>
<feColorMatrix in="SourceAlpha" type="matrix" values="0 0 0 0 0 0 0 0 0 0 0 0 0 0 0 0 0 0 127 0" result="hardAlpha"/>
<feOffset dy="-0.5"/>
<feGaussianBlur stdDeviation="0.25"/>
<feComposite in2="hardAlpha" operator="arithmetic" k2="-1" k3="1"/>
<feColorMatrix type="matrix" values="0 0 0 0 0.0392157 0 0 0 0 0.0509804 0 0 0 0 0.0705882 0 0 0 0.1 0"/>
<feBlend mode="normal" in2="shape" result="effect4_innerShadow_14838_4346"/>
</filter>
<linearGradient id="paint0_linear_14838_4346" x1="19" y1="2" x2="19" y2="34" gradientUnits="userSpaceOnUse">
<stop stop-color="white"/>
<stop offset="1" stop-color="#0A0D12"/>
</linearGradient>
<clipPath id="clip0_14838_4346">
<path d="M3 14.8C3 10.3196 3 8.07937 3.87195 6.36808C4.63893 4.86278 5.86278 3.63893 7.36808 2.87195C9.07937 2 11.3196 2 15.8 2H22.2C26.6804 2 28.9206 2 30.6319 2.87195C32.1372 3.63893 33.3611 4.86278 34.1281 6.36808C35 8.07937 35 10.3196 35 14.8V21.2C35 25.6804 35 27.9206 34.1281 29.6319C33.3611 31.1372 32.1372 32.3611 30.6319 33.1281C28.9206 34 26.6804 34 22.2 34H15.8C11.3196 34 9.07937 34 7.36808 33.1281C5.86278 32.3611 4.63893 31.1372 3.87195 29.6319C3 27.9206 3 25.6804 3 21.2V14.8Z" fill="white"/>
</clipPath>
</defs>
</svg>
